<svg width="49" height="72" viewBox="0 0 49 72" fill="none" xmlns="http://www.w3.org/2000/svg">
<path d="M30.3005 43.6063C29.8983 43.1549 29.2064 43.1169 28.755 43.5191C28.0955 44.1083 26.4418 44.7018 24.2339 44.7018C22.0247 44.7018 20.371 44.1069 19.7129 43.5191C19.2614 43.1169 18.5696 43.1549 18.1674 43.6063C17.7652 44.0563 17.8032 44.7482 18.2546 45.1518C19.4738 46.2416 21.7097 46.8913 24.2339 46.8913C26.7596 46.8913 28.9941 46.2416 30.2133 45.1518C30.6647 44.7482 30.7041 44.0577 30.3005 43.6063Z" fill="#BA7894"/>
<path d="M21.6449 33.9595C21.2371 33.5123 20.5452 33.4814 20.0995 33.8892C19.7831 34.1775 18.9042 34.4883 17.7215 34.4883C16.5388 34.4883 15.6599 34.1775 15.3435 33.8892C14.8963 33.4814 14.2045 33.5137 13.7981 33.9595C13.3902 34.4067 13.4226 35.0986 13.8684 35.505C14.6727 36.239 16.1127 36.6764 17.7215 36.6764C19.3302 36.6764 20.7717 36.239 21.5746 35.505C22.0204 35.0986 22.0527 34.4053 21.6449 33.9595Z" fill="#BA7894"/>
<path d="M22.6969 28.8281C21.6717 28.163 19.8126 27.7664 17.7215 27.7664C15.6304 27.7664 13.77 28.163 12.7462 28.8281C12.24 29.1572 12.0951 29.835 12.4242 30.3413C12.6337 30.6633 12.9853 30.8391 13.3425 30.8391C13.5464 30.8391 13.7531 30.7814 13.9373 30.6619C14.4815 30.3089 15.8625 29.9531 17.7215 29.9531C19.5806 29.9531 20.9615 30.3089 21.5058 30.6619C22.0134 30.9909 22.6912 30.8475 23.0189 30.3399C23.3479 29.835 23.2045 29.1572 22.6969 28.8281Z" fill="#BA7894"/>
<path d="M34.6697 33.9595C34.2619 33.5123 33.57 33.4814 33.1242 33.8892C32.8078 34.1775 31.9289 34.4883 30.7463 34.4883C29.5636 34.4883 28.6847 34.1775 28.3683 33.8892C27.9225 33.4814 27.2292 33.5137 26.8228 33.9595C26.415 34.4067 26.4474 35.0986 26.8932 35.505C27.6975 36.239 29.1375 36.6764 30.7463 36.6764C32.355 36.6764 33.795 36.239 34.5994 35.505C35.0466 35.0986 35.0775 34.4053 34.6697 33.9595Z" fill="#BA7894"/>
<path d="M35.723 28.8281C34.6979 28.163 32.8388 27.7664 30.7463 27.7664C28.6552 27.7664 26.7947 28.163 25.771 28.8281C25.2633 29.1572 25.1199 29.835 25.449 30.3413C25.778 30.8475 26.4558 30.9924 26.9635 30.6633C27.5077 30.3103 28.8886 29.9545 30.7477 29.9545C32.6068 29.9545 33.9877 30.3103 34.5319 30.6633C34.7161 30.7828 34.9229 30.8405 35.1268 30.8405C35.4854 30.8405 35.8355 30.6647 36.0451 30.3427C36.3741 29.835 36.2293 29.1572 35.723 28.8281Z" fill="#BA7894"/>
<path d="M45.4402 64.575C43.508 62.9325 40.8727 62.0283 38.0208 62.0283C35.9427 62.0283 34.2194 61.7718 32.9096 61.4691C31.4743 61.1373 30.5789 59.7901 30.5789 58.317C30.5789 56.8036 31.5439 55.4817 32.8837 54.778C36.4146 52.9233 39.2815 49.9708 41.0281 46.3768C41.908 44.5662 43.618 43.2413 45.289 42.1187C47.2032 40.8328 48.4664 38.6481 48.4664 36.18C48.4664 33.5361 46.9945 31.1849 44.8102 29.9481C43.7607 29.3539 42.8948 28.3495 42.8948 27.1435C42.8948 26.9037 42.9291 26.6651 42.9916 26.4336C44.1548 22.1236 44.0726 17.9229 43.7864 15.1144C43.6191 13.4663 43.3659 12.1106 43.1831 11.2641C43.013 10.478 42.9033 10.0533 42.8217 9.80719C42.8048 9.7425 42.7837 9.67922 42.7542 9.61734C41.542 7.04812 39.3862 4.85859 36.6272 3.2175C36.5709 3.17672 36.5119 3.14297 36.45 3.11344C33.0595 1.14609 28.7831 0 24.2339 0C20.6522 0 17.1492 0.70875 14.1047 2.04891C13.552 2.29219 13.3003 2.93766 13.5436 3.49172C13.7869 4.04437 14.4323 4.29609 14.9864 4.05281C17.7553 2.83359 20.9531 2.18953 24.2339 2.18953C25.7163 2.18953 27.1643 2.31973 28.5519 2.56689C31.2764 3.05217 31.7111 6.29348 29.3175 7.68234C28.7944 7.98609 28.6172 8.65547 28.9209 9.17859C29.1234 9.52875 29.4905 9.72422 29.8687 9.72422C30.0558 9.72422 30.2442 9.67641 30.4172 9.57656C31.4587 8.97211 32.4151 8.36417 33.2944 7.74707C35.0498 6.51515 37.4792 6.23211 38.9226 7.81806C39.5017 8.4543 40.0012 9.13401 40.4098 9.85173C40.4754 9.9669 40.4697 10.1082 40.3973 10.2192C40.3706 10.2586 40.3439 10.2994 40.3172 10.3387C37.9209 13.8291 32.8359 17.1731 25.4798 20.0967C25.4363 20.1136 25.3913 20.1305 25.3477 20.1488C25.1873 20.212 25.027 20.2753 24.8653 20.3372C19.8257 22.284 14.7168 23.6779 11.1656 24.5328C9.10075 25.03 7.02858 23.7312 6.82519 21.6171C6.81177 21.4777 6.79945 21.3388 6.78818 21.2005C6.6561 19.5797 7.82818 18.1642 9.39094 17.7145C10.0842 17.5134 10.8014 17.3067 11.4933 17.1464C11.5045 17.1436 11.5158 17.1408 11.527 17.138C16.0256 15.9469 20.4525 14.3381 25.882 11.9208C26.4347 11.6747 26.6822 11.0278 26.4361 10.4766C26.19 9.92531 25.5431 9.67641 24.9919 9.9225C19.6805 12.2878 15.3591 13.86 10.9842 15.0188C10.2403 15.1917 9.49922 15.4055 8.78344 15.6122C7.80197 15.8963 6.87247 15.1112 7.01207 14.099C7.2247 12.5573 7.49013 11.3997 7.63706 10.8197C7.69493 10.5912 7.77704 10.3703 7.88689 10.1618C8.64897 8.71526 9.79196 7.39553 11.2908 6.23109C11.7689 5.86125 11.8547 5.17359 11.4848 4.69547C11.1136 4.21875 10.4273 4.13156 9.94922 4.50141C8.04094 5.98359 6.615 7.70484 5.71078 9.62016C5.68828 9.66938 5.66859 9.71859 5.65313 9.77063C5.55049 10.1104 3.20565 18.051 5.47311 26.437C5.53566 26.6684 5.57016 26.9078 5.57016 27.1475C5.57016 28.3533 4.70363 29.3573 3.65427 29.9513C1.47194 31.1867 0 33.5383 0 36.1814C0 38.6494 1.26366 40.8339 3.17769 42.1199C4.84857 43.2425 6.55835 44.5675 7.43832 46.378C9.18513 49.9719 12.0524 52.9243 15.5826 54.7791C16.9225 55.483 17.8875 56.8051 17.8875 58.3186C17.8875 59.7917 16.9924 61.139 15.5572 61.4712C14.2472 61.7743 12.524 62.0311 10.4456 62.0311C7.59375 62.0311 4.95984 62.9353 3.02625 64.5778C1.07578 66.2344 0 68.483 0 70.9059C0 71.5106 0.489375 72 1.09406 72H47.3737C47.9784 72 48.4678 71.5106 48.4678 70.9059C48.4678 68.483 47.392 66.2344 45.4402 64.575ZM42.7148 40.8361C42.833 39.9783 42.8948 39.112 42.8948 38.2472V37.6596C42.8948 34.6245 46.2783 33.1463 46.2783 36.1814C46.2783 38.3936 44.816 40.2786 42.808 40.9146C42.7583 40.9303 42.7089 40.8879 42.7148 40.8361ZM2.18813 36.1814C2.18813 33.1463 5.57156 34.6245 5.57156 37.6596V38.2472C5.57156 39.1134 5.63344 39.9783 5.75156 40.8361C5.75949 40.8877 5.70812 40.9303 5.6584 40.9145C3.65039 40.2773 2.18813 38.3936 2.18813 36.1814ZM40.9219 13.1048C40.9472 13.0767 40.9725 13.0472 40.9978 13.0191C41.0667 12.9403 41.1342 12.8616 41.2003 12.7828C41.2157 12.764 41.2458 12.7717 41.25 12.7957C41.619 14.8732 41.9868 18.1022 41.6355 21.6745C41.4309 23.7554 40.6735 25.3117 38.6351 24.846C35.1249 24.0441 33.5885 18.9148 36.5546 16.8737C38.3142 15.6628 39.7713 14.4057 40.9219 13.1048ZM8.02406 41.1877C8.02266 41.1764 8.01984 41.1638 8.01703 41.1525C7.84406 40.1948 7.76109 39.2203 7.76109 38.2472V30.143V27.5661C7.76109 27.5471 7.775 27.5305 7.79344 27.5259C9.48797 27.1884 11.1727 26.7933 12.8489 26.3742C14.6152 25.9327 16.3716 25.4545 18.1167 24.9356C19.26 24.5953 20.3991 24.2381 21.5297 23.8598C21.5708 23.8462 21.6136 23.8388 21.6569 23.8388H26.0652C26.6042 23.8388 27.1399 23.9271 27.6525 24.094C31.7472 25.4272 35.5563 26.3871 38.157 26.9806C39.6372 27.3185 40.7081 28.6233 40.7081 30.1416V38.2458C40.7081 39.2175 40.6223 40.1948 40.4508 41.1525C40.4494 41.1638 40.4466 41.175 40.4452 41.1862C39.3258 47.3794 34.7316 52.3786 28.762 54.0872C28.7522 54.09 28.7423 54.0928 28.7325 54.0956C27.2714 54.5062 25.7527 54.72 24.2339 54.72C22.7194 54.72 21.1894 54.5161 19.7339 54.0956C19.7269 54.0942 19.7213 54.0914 19.7142 54.09C13.7419 52.3828 9.14484 47.3822 8.02406 41.1877ZM2.29219 69.8106C2.29219 69.8105 2.2922 69.8104 2.29221 69.8103C2.55239 68.459 3.29488 67.2201 4.44375 66.2428C5.98078 64.9364 8.11266 64.2178 10.4456 64.2178C16.0777 64.2178 19.3584 62.5092 19.4948 62.4361C19.852 62.2463 20.0756 61.875 20.0756 61.47C20.0756 61.47 20.0756 56.4427 20.0756 56.4441C20.0784 56.8617 24.0117 56.9095 24.2325 56.9095C26.3792 56.9095 28.3894 58.489 28.3894 60.6357V61.4714C28.3894 61.8764 28.613 62.2477 28.9702 62.4375C29.1066 62.5106 32.3873 64.2192 38.0194 64.2192C40.3523 64.2192 42.4842 64.9378 44.0213 66.2442C45.7004 67.6709 44.1285 69.8119 41.9252 69.8119H2.29347C2.29276 69.8119 2.29219 69.8113 2.29219 69.8106Z" fill="#BA7894"/>
</svg>
