<svg width="282" height="152" viewBox="0 0 282 152" fill="none" xmlns="http://www.w3.org/2000/svg">
<path d="M176.615 95.1553C175.979 95.6335 175.979 95.6335 176.419 97.6286C175.051 96.9196 174.577 97.6286 174.1 98.763C173.733 99.6501 172.898 100.336 172.365 101.167C172.033 101.681 171.646 102.318 171.679 102.875C171.878 106.097 171.709 109.266 170.596 112.32C170.482 112.561 170.319 112.777 170.118 112.953C169.917 113.13 169.681 113.263 169.426 113.345C168.747 113.54 168.492 113.794 168.532 114.506C168.615 116.06 168.615 117.616 168.664 119.173C168.664 119.585 168.737 119.994 168.777 120.406L168.403 120.465C168.317 119.868 168.181 119.275 168.154 118.678C168.095 117.408 168.128 116.132 168.055 114.866C167.995 113.827 167.392 113.247 166.329 113.306C165.266 113.365 165.031 114.101 165.127 114.978C165.494 118.368 165.912 121.755 166.263 125.151C166.309 125.814 166.26 126.481 166.117 127.13C165.828 127.253 165.508 127.287 165.199 127.229C164.905 126.594 164.708 125.918 164.616 125.224C164.381 122.302 164.269 119.374 164.01 116.455C163.857 114.847 163.596 113.25 163.229 111.677C163.132 111.255 162.53 110.948 162.159 110.589C161.9 110.998 161.466 111.387 161.413 111.819C160.83 116.732 161.244 121.623 161.804 126.51C162.002 127.809 162.112 129.12 162.135 130.434C162.135 130.959 161.585 131.473 161.287 131.994C160.979 131.549 160.476 131.13 160.406 130.649C160.244 129.531 160.307 128.383 160.257 127.249C160.049 122.656 159.829 118.063 159.595 113.471C159.548 113.179 159.469 112.894 159.359 112.62H159.008C159.008 113.256 158.985 113.896 159.008 114.533C159.014 115.509 158.65 116.452 157.989 117.174C157.327 117.895 156.418 118.343 155.441 118.427C154.218 118.487 152.403 120.558 152.509 121.87C152.86 126.193 153.254 130.513 153.625 134.837C153.712 135.444 153.737 136.058 153.701 136.67C153.655 137.059 153.4 137.699 153.145 137.749C151.843 138.006 152.26 138.82 152.323 139.641C152.602 143.216 152.839 146.794 153.036 150.375C153.075 151.081 153.055 152.14 152.022 151.985C151.429 151.899 150.568 151.108 150.495 150.55C150.356 149.442 150.67 148.275 150.826 147.134C151.002 145.772 151.624 144.304 151.306 143.074C150.313 139.223 150.611 135.328 150.402 131.447C150.273 129.092 150.071 126.741 149.918 124.386C149.779 121.956 149.687 119.525 149.587 117.095C148.925 116.917 147.755 116.94 147.268 116.386C146.781 115.832 146.993 114.658 146.834 113.771C146.728 113.398 146.568 113.043 146.361 112.716C146.162 112.326 145.841 111.977 145.738 111.568C145.254 109.622 144.824 107.664 144.33 105.513C144.943 106.404 145.476 107.248 146.076 108.039C146.675 108.831 147.351 109.444 147.858 110.232C148.11 110.622 148.09 111.222 148.126 111.713C148.179 112.508 148.103 113.319 148.239 114.097C148.282 114.348 148.921 114.757 149.094 114.671C149.273 114.576 149.431 114.443 149.555 114.282C149.679 114.121 149.766 113.936 149.812 113.738C149.918 112.966 149.846 112.168 150.087 111.35C150.256 111.812 150.336 112.34 150.617 112.719C150.74 112.884 150.898 113.02 151.079 113.117C151.261 113.214 151.462 113.269 151.668 113.28C151.926 113.243 152.251 112.679 152.287 112.323C152.429 110.859 152.469 109.388 152.569 107.565C152.769 107.003 152.932 106.429 153.055 105.846C153.267 104.593 153.542 103.324 153.509 102.067C153.464 100.766 153.241 99.4768 152.847 98.2354C152.413 96.8603 152.022 95.6401 153.47 94.6079C153.801 94.3573 153.96 93.8297 154.202 93.4207C151.552 92.3061 151.2 91.4982 152.472 88.9622C152.92 90.2813 154.791 90.3704 154.46 91.9994C156.448 92.1247 158.455 92.2962 160.459 92.349C161.122 92.3655 161.814 92.0852 162.669 91.9038L161.847 93.0613C163.603 94.0506 165.438 93.7439 167.19 93.3482C168.211 93.1173 168.32 91.1915 167.472 90.5649C167.055 90.2582 166.677 89.9054 166.415 89.6811C167.581 87.9136 168.873 86.3406 169.728 84.5631C171.222 81.5127 170.804 78.5349 168.443 76.0418C164.842 72.2429 160.297 70.106 155.142 71.0953C149.763 72.1176 146.993 74.6502 147.838 79.9496C146.659 82.3569 149.07 83.1945 149.938 84.7082C150.109 84.9526 150.296 85.1851 150.498 85.404L148.179 86.9045C148.603 87.7915 149.11 88.8534 149.62 89.9153L149.375 90.1164L144.476 86.3043C144.588 86.6546 144.723 86.9972 144.88 87.3299C146.622 90.1626 148.431 92.9558 150.101 95.8281C150.959 97.3021 151.161 98.9345 150.263 100.956C149.63 96.6096 147.364 93.3944 145.364 90.0736C144.323 88.3456 142.644 87.3859 140.796 86.7759C140.487 86.6703 139.875 87.1452 139.543 87.4882C137.079 90.0274 135.509 93.1207 134.323 96.392C133.66 98.1892 133.329 100.095 132.796 102.176C132.7 101.48 132.411 100.831 132.577 100.333C133.379 97.9386 134.233 95.5544 135.227 93.2328C135.967 91.5477 136.821 89.9148 137.784 88.3456C138.818 86.6242 139.772 84.6785 142.488 85.1072C142.283 84.2729 142.137 83.6925 141.998 83.1286C143.535 81.8821 143.535 81.8821 142.349 80.1343C142.145 79.8078 142.013 79.4411 141.964 79.0594C141.915 78.6777 141.95 78.2899 142.066 77.9228C142.182 77.5556 142.376 77.2178 142.635 76.9324C142.895 76.647 143.213 76.4208 143.568 76.2694C144.151 76.0451 144.83 75.4647 144.986 74.9107C145.105 74.482 144.509 73.8258 144.174 73.308C143.983 73.0915 143.759 72.9047 143.512 72.754L143.532 72.3583C144.065 72.3319 144.625 72.1934 145.128 72.3055C146.225 72.5463 147.209 72.5001 148.11 71.7581C148.411 71.5141 148.795 71.2173 149.143 71.214C150.932 71.1876 152.098 70.073 153.264 68.9748C154.861 67.4678 156.746 67.1875 158.786 67.6558C160.966 68.1603 163.122 68.777 165.302 69.2716C165.918 69.4101 166.594 69.2914 167.24 69.2914L167.429 68.7704L166.104 68.0185L167.638 66.3103L167.422 65.8354L163.778 66.6697C163.59 65.6079 163.394 64.4669 163.179 63.3325C163.013 62.4553 162.735 61.9013 161.582 62.2442C161.059 62.3992 160.257 62.0727 159.767 61.7067C159.499 61.5055 159.436 60.6778 159.638 60.3151C159.84 59.9523 160.439 59.8171 160.89 59.6357C161.247 59.5183 161.613 59.4258 161.983 59.3587L160.956 58.5673C161.122 57.9077 163.03 58.1056 162.178 56.8294C161.436 55.7115 160.522 57.2086 159.585 56.9679L160.164 57.3867C160.012 57.8385 159.87 58.2738 159.687 58.8146L157.948 58.0495C158.084 58.7816 158.197 59.3686 158.385 60.4008C157.594 60.0117 156.865 59.86 156.809 59.5797C156.723 59.1345 157.087 58.5904 157.243 58.1683L153.413 56.3512C153.48 56.1501 153.542 55.9456 153.605 55.7444L156.355 56.4337C156.742 55.5235 156.855 54.7848 157.289 54.4254C157.551 54.211 158.313 54.6001 159.118 54.7749C160.052 53.9406 161.287 52.8688 163.02 54.986C163.02 54.2473 163.156 53.7889 162.997 53.6405C162.099 52.8062 162.526 52.3214 163.384 51.9257C163.146 50.1911 161.397 51.2662 160.658 50.4846C160.959 49.9636 161.098 49.9636 163.725 50.5275C163.788 50.0328 163.848 49.5382 163.918 48.9743C164.149 49.0105 164.373 49.0852 164.58 49.1952C165.872 50.2571 167.094 51.4113 168.446 52.394C169.333 53.0632 169.949 54.0264 170.185 55.1091C170.42 56.1919 170.258 57.3227 169.728 58.2969C169.479 58.7421 169.691 59.4379 169.691 60.015L170.281 60.2095C170.627 59.754 170.924 59.2632 171.165 58.7454C171.299 58.2054 171.372 57.6524 171.384 57.0965L171.944 56.958C172.567 58.0199 173.348 59.0191 173.779 60.1535C175.648 64.9538 176.367 70.1218 175.879 75.2471C175.581 78.337 175.343 81.4369 174.915 84.5103C174.707 86.0174 174.127 87.4783 173.723 88.9524C173.243 90.7133 173.57 91.3696 175.048 92.4941C175.575 92.8964 175.803 93.6879 176.161 94.3045C176.31 94.565 176.456 94.8585 176.615 95.1553ZM158.369 106.437L158.038 106.081C157.392 106.381 156.666 106.585 156.136 107.027C155.928 107.199 156.156 107.894 156.186 108.346C156.626 108.287 157.243 108.386 157.468 108.135C157.902 107.683 158.091 107.017 158.369 106.437ZM169.208 71.369L170.944 73.3311C171.01 71.646 170.718 71.3327 169.208 71.369Z" fill="white"/>
<path d="M136.4 32.0702C135.959 32.1691 135.757 32.2252 135.548 32.2615C135.105 32.3373 134.333 32.5649 134.27 32.4428C134.011 31.935 133.766 31.2689 133.895 30.7544C134.065 29.9871 134.448 29.2829 135.002 28.723C137.572 26.4377 137.963 23.694 137.016 20.5777C136.473 18.8002 136.492 18.8101 138.275 17.9395C138.706 17.6858 139.114 17.3968 139.497 17.0755C139.431 16.9436 139.365 16.8117 139.302 16.6798C138.308 17.0524 137.241 17.28 136.363 17.8241C134.25 19.1432 133.23 18.7178 132.938 16.2709C132.925 15.9226 132.826 15.5829 132.65 15.2816C131.587 13.8768 131.553 12.4752 132.65 11.0506C131.421 10.9253 131.037 11.265 130.752 12.6038C130.421 14.1505 129.357 14.7605 128.433 13.8636C128.039 13.4777 127.916 12.8149 127.635 12.2147C126.515 12.6269 126.548 13.5866 127.012 14.2923C127.366 14.8331 128.228 15.0441 128.933 15.4399C128.122 16.3896 127.174 16.6435 126.074 16.2775C123.659 15.4728 123.553 13.3887 123.424 11.3606L122.099 12.1323C122.152 12.6401 122.218 13.2832 122.285 13.946C120.353 13.6162 120.012 12.7423 120.41 9.3622C119.346 9.83047 118.922 10.5922 119.158 11.9245C119.343 12.9798 119.674 14.012 119.979 15.2222L117.578 14.8166C117.935 16.1027 118.873 16.4655 119.83 16.3368C121.705 16.1159 123.262 16.3138 124.799 17.679C126.038 18.7804 127.731 18.3056 129.158 17.5306C129.765 17.2008 130.318 16.7721 130.941 16.3599C131.587 17.468 131.272 18.2033 130.248 18.7739C129.558 19.148 128.893 19.5689 128.261 20.0336C127.168 20.8481 125.998 20.9009 124.756 20.4953L122.977 19.8753L123.454 21.1614L121.745 20.426L121.5 20.8481L124.498 22.7047C121.675 23.0345 117.654 20.6667 116.547 17.8604L119.39 18.7706L119.549 18.421C119.042 18.1572 118.535 17.9 118.031 17.6328C115.381 16.2214 113.881 13.5239 114.192 10.7077C114.325 9.49081 114.523 9.27975 115.706 8.69276C115.981 8.55426 116.123 8.14205 116.319 7.85185C118.638 4.38596 121.95 2.57552 126.081 2.15671L120.834 4.96306L120.976 5.29283C121.771 5.01252 122.573 4.7553 123.355 4.44532C128.857 2.28202 134.442 0.415519 140.408 0.0791526C144.936 -0.174771 149.395 0.0791526 153.476 2.38755C153.626 2.47773 153.77 2.57799 153.907 2.68764C153.933 2.70742 153.93 2.76348 153.963 2.89869L152.79 3.52526C152.79 3.65716 152.81 3.78907 152.817 3.92098C153.894 3.92098 154.97 3.8946 156.043 3.92098C158.362 3.99023 160.681 4.10895 162.811 5.3225C165.792 7.03731 166.316 9.29954 164.242 12.0432C164.142 12.1604 164.067 12.2973 164.023 12.445C163.979 12.5927 163.967 12.7479 163.987 12.9006L165.975 11.5816L166.342 11.8685L164.507 14.5726L165.461 14.9551C164.166 15.8983 163.142 16.8315 161.937 17.4713C160.731 18.111 159.336 18.4968 157.988 19.008L160.161 19.2157C160.161 19.3378 160.161 19.4598 160.161 19.5818L163.861 17.956C161.648 21.2241 157.836 20.8283 155.248 22.7608C154.473 21.0822 153.231 22.5332 152.191 22.1276L153.105 21.168L151.383 20.5084L152.976 19.6543L152.923 19.285H147.977L151.952 15.6146L151.472 15.1233L150.657 16.4424L150.303 16.3105C150.066 15.497 149.83 14.6825 149.594 13.8669C149.074 15.2354 149.044 16.7161 147.461 17.3196C146.884 16.1489 145.092 16.0895 144.317 17.2503C143.747 18.0945 143.111 18.698 141.856 18.7409C142.704 16.8249 141.882 15.4827 140.617 14.223C140.136 13.7481 139.855 13.0754 139.153 12.528C139.139 12.9714 139.182 13.4147 139.282 13.8471C139.475 14.2394 139.736 14.5945 140.054 14.8958C141.733 16.7985 141.76 17.0426 140.358 19.163C142.137 19.9841 143.479 19.3345 144.8 17.8142C145.589 20.3469 145.635 22.619 144.628 24.8779C144.363 25.4781 143.899 26.0288 143.79 26.6488C143.694 27.2094 143.75 28.0305 144.098 28.3834C144.973 29.2672 144.883 30.2202 144.784 31.6448L143.035 29.1385L141.779 30.8171C141.481 30.2499 141.286 29.8739 141.067 29.4518C140.676 29.8245 140.405 29.9564 140.385 30.1114C140.14 32.0174 138.619 33.1716 137.672 34.6523C137.341 35.1799 136.555 35.4306 135.979 35.8098L135.711 35.5229C135.985 35.0158 136.207 34.4821 136.373 33.9301C136.439 33.3123 136.448 32.6897 136.4 32.0702ZM139.252 27.5886C142.051 26.3718 142.419 25.4484 141.061 23.4137C140.428 24.8779 139.838 26.2333 139.252 27.5886ZM141.816 4.68605C141.816 4.58382 141.786 4.48489 141.773 4.38266H135.061C136.274 4.71243 137.334 5.23676 138.414 5.27634C139.494 5.31591 140.68 4.9037 141.816 4.68605ZM143.075 24.5646C144.363 23.3016 143.962 22.0023 143.618 20.703H143.254L143.075 24.5646Z" fill="white"/>
<path d="M245.162 76.0979C245.113 76.5958 245.027 77.0872 245.027 77.5983C245.027 83.6035 244.977 89.6086 245.046 95.6137C245.046 96.9328 244.639 97.2626 243.39 97.2032C241.27 97.1109 239.147 97.1768 236.917 97.1768V51.1244C239.485 51.1244 242.025 51.0914 244.563 51.1672C244.871 51.1672 245.328 51.741 245.434 52.1236C246.332 55.4213 247.173 58.719 248.015 62.0431C248.376 63.4578 248.697 64.8857 249.038 66.307L249.552 66.2641V51.0617C252.102 51.0617 254.597 51.0386 257.088 51.1046C257.287 51.1046 257.621 51.7212 257.634 52.0576C257.697 53.5482 257.664 55.0255 257.664 56.5293C257.664 69.5003 257.664 82.4779 257.664 95.462C257.664 97.1439 257.664 97.1471 255.915 97.1504C254.11 97.1504 252.301 97.1175 250.499 97.1504C249.605 97.1669 249.346 96.791 249.197 95.9303C248.422 91.4454 247.541 86.977 246.709 82.5053C246.31 80.3684 245.907 78.2315 245.5 76.0946L245.162 76.0979ZM243.42 53.779C244.278 53.502 245.338 53.535 244.921 52.206C243.191 51.9949 243.188 51.9982 243.42 53.7922V53.779ZM244.083 69.9048C243.46 69.3013 243.178 68.7902 242.854 68.7605C242.161 68.6978 241.254 68.9089 241.923 69.8586C242.138 70.162 243.162 69.918 244.083 69.918V69.9048Z" fill="white"/>
<path d="M260.917 77.4368V59.6753C260.917 57.2284 260.944 54.7815 260.917 52.3346C260.917 51.4047 261.176 51.0155 262.193 51.0155C266.598 51.0683 271.007 50.943 275.406 51.0881C278.355 51.1837 282.085 53.5119 281.999 57.6835C281.777 68.6451 281.926 79.6099 281.926 90.5748C281.926 94.1726 279.249 97.0845 275.585 97.19C271.05 97.3153 266.512 97.2197 261.974 97.2626C260.854 97.2626 260.954 96.547 260.95 95.8544C260.95 90.8969 260.95 85.9404 260.95 80.9851V77.4368H260.917ZM273.631 74.1555H273.611C273.611 70.0356 273.611 65.919 273.611 61.8056C273.629 61.4123 273.61 61.0182 273.555 60.6283C273.339 59.4873 272.505 58.93 271.137 58.897C270.086 58.874 269.255 58.9168 269.192 60.348C269.142 61.4396 269.159 68.1405 269.272 69.3508C269.407 70.8216 269.325 72.3187 269.318 73.7928C269.298 78.6536 269.258 83.5111 269.265 88.3687C269.278 88.5483 269.332 88.7226 269.424 88.8777C269.516 89.0329 269.643 89.1645 269.795 89.2623C272.061 90.1626 273.631 89.0711 273.634 86.6242C273.636 82.4647 273.635 78.3085 273.631 74.1555Z" fill="white"/>
<path d="M20.4884 84.7742L19.0938 84.5664C21.0814 85.3776 20.6143 87.0595 20.5613 88.5237C20.505 90.1296 20.5878 91.8214 20.1174 93.3185C19.2528 96.082 16.8247 97.2758 14.1912 97.4011C9.66617 97.6319 5.1246 97.4703 0.589643 97.467C0.387042 97.433 0.189145 97.3754 0 97.2955V52.8524C0 51.1639 -1.90735e-06 51.1573 1.76562 51.154C5.55192 51.154 9.33823 51.1376 13.1245 51.154C17.7622 51.154 20.5514 53.8812 20.5646 58.4683C20.5911 66.8445 20.5646 75.2174 20.5646 83.5903C20.5713 83.9662 20.5216 84.3422 20.4884 84.7742ZM8.0695 74.2215H8.15894C8.15894 78.9075 8.15894 83.5969 8.15894 88.2829C8.15894 88.705 8.30801 89.3481 8.59952 89.5097C10.1333 90.3539 12.1175 89.3019 12.3527 87.5838C12.4035 87.1934 12.4278 86.8001 12.4256 86.4065C12.4256 78.3041 12.4421 70.1983 12.4256 62.0958C12.4256 59.616 11.6769 59.0158 9.2256 59.0619C8.30138 59.0619 8.03637 59.3686 8.04631 60.2887C8.09269 64.9187 8.0695 69.5618 8.0695 74.2083V74.2215Z" fill="white"/>
<path d="M220.838 97.1702C218.234 97.1702 215.819 97.1966 213.408 97.134C213.169 97.134 212.745 96.5832 212.745 96.3095C213.077 89.846 213.444 83.3825 213.799 76.9223C213.901 75.0492 213.968 73.1761 214.054 71.2569L215.107 71.1348C215.054 70.9304 215.057 70.7424 214.988 70.7094C214.047 70.2643 214.077 69.5486 214.173 68.6319C214.402 66.5016 214.441 64.3449 214.594 62.2145C214.746 60.0842 214.991 57.888 215.11 55.7214C215.177 54.5177 215.084 53.3041 215.038 52.0939C215.011 51.3882 215.279 51.0683 216.031 51.0716C220.832 51.0936 225.631 51.0936 230.428 51.0716C231.143 51.0716 231.448 51.3288 231.452 52.0609C231.452 53.0502 231.842 54.1451 231.574 55.0288C231.19 56.3018 231.829 57.39 231.77 58.5805C231.707 59.9259 231.938 61.2846 232.015 62.6399C232.091 63.9953 232.151 65.3408 232.197 66.6928C232.243 68.0449 232.22 69.4035 232.306 70.7556C232.7 76.9982 233.128 83.2374 233.525 89.48C233.678 91.8345 233.813 94.1957 233.856 96.5536C233.805 96.75 233.705 96.9302 233.564 97.0768C233.423 97.2235 233.246 97.3317 233.052 97.3912C230.816 97.4242 228.576 97.3912 226.347 97.2725C226.062 97.256 225.615 96.6129 225.578 96.2403C225.403 94.321 225.317 92.3919 225.247 90.466C225.211 89.4932 224.956 88.9655 223.786 88.9952C221.169 89.0612 221.136 89.0645 221.11 91.696C221.1 93.4768 220.944 95.2246 220.838 97.1702ZM223.505 59.3851L223.134 59.3653C223.014 60.2524 222.842 61.1362 222.802 62.0266C222.554 66.2377 222.342 70.4522 222.11 74.6634C222.011 76.454 221.891 78.2447 221.799 80.0354C221.719 81.5523 222.892 81.0247 223.654 81.1269C224.545 81.2621 224.647 80.7345 224.647 80.0156C224.647 79.1186 224.207 78.0534 225.128 77.7072C224.859 77.074 224.492 76.586 224.465 76.0748C224.233 72.1505 224.081 68.223 223.876 64.2954C223.773 62.663 223.624 61.0241 223.505 59.3851Z" fill="white"/>
<path d="M44.0179 51.2068V64.1338L42.8121 63.6853L42.8584 63.4875L43.9085 63.6029C43.4183 63.0192 43.1135 62.386 42.8551 62.4025C42.0568 62.4586 42.0005 63.0818 42.1529 63.7711C42.2271 64.3397 42.2648 64.9125 42.2655 65.4859C43.5905 65.9838 44.157 67.2468 44.1305 69.1364C44.0278 76.5893 44.1106 84.0454 44.0609 91.5015C44.0479 92.5858 43.8323 93.6582 43.4249 94.664C42.6067 96.6426 41.0498 97.5561 38.8336 97.5033C35.4879 97.4242 32.1422 97.5033 28.7931 97.4868C25.7919 97.4868 24.1091 96.0029 23.7911 93.0382C23.6267 91.6479 23.535 90.25 23.5162 88.8501C23.5007 76.9212 23.5007 64.9945 23.5162 53.07C23.5162 51.2299 23.5162 51.2299 25.4043 51.2266C26.948 51.2266 28.495 51.3057 30.042 51.2035C31.2975 51.1178 31.6784 51.4904 31.6751 52.7897C31.6221 63.6194 31.6453 74.449 31.6519 85.282C31.6519 85.8064 31.6519 86.334 31.6784 86.8583C31.801 88.8073 32.3211 89.3712 33.9476 89.3415C35.4813 89.3151 35.9682 88.7413 35.9682 86.7858C35.9682 75.5582 35.9682 64.3317 35.9682 53.1063C35.9682 51.2002 35.9682 51.2035 37.916 51.2035L44.0179 51.2068ZM41.275 58.132L42.9744 58.4947V56.3413L42.6431 56.1797L41.275 58.132Z" fill="white"/>
<path d="M52.0642 89.6449L51.0704 90.0637V96.9889C49.2948 96.6393 48.2149 95.2642 48.0891 92.9723C47.9665 90.7859 48.0162 88.5896 48.0096 86.3966C48.0096 83.1935 48.0096 79.9914 48.0096 76.7904C48.0096 76.3221 48.0526 75.8506 48.0791 75.3064H51.8058C51.5077 76.6882 51.2161 78.0336 50.8716 79.6099C53.1905 78.4689 53.7138 77.2224 52.9288 75.4153C52.9884 75.3658 53.0513 75.2735 53.111 75.2735C56.5494 75.1811 56.0492 74.8645 56.0923 77.971C56.1354 81.2159 56.0923 84.4642 56.1287 87.7091C56.1519 89.358 56.3407 89.5031 58.1163 89.5624C59.5838 89.6119 60.18 89.2327 60.2364 87.8872C60.3357 85.5359 60.2894 83.1781 60.296 80.8202C60.296 79.3956 60.2695 77.971 60.296 76.5497C60.3192 75.3988 59.809 74.7293 58.7623 74.2116C55.6882 72.6947 52.6737 71.0524 49.6162 69.4992C49.1104 69.2842 48.6844 68.9179 48.3971 68.4511C48.1099 67.9844 47.9756 67.4402 48.0129 66.894C48.0394 63.2665 47.9532 59.6126 48.0526 55.9753C48.1354 52.7831 50.2257 51.0749 53.4025 51.1738C56.3838 51.2695 59.395 51.0584 62.3796 51.2266C63.8074 51.3057 65.4471 51.619 66.5436 52.4269C67.4744 53.1096 68.127 54.6199 68.2562 55.8302C68.5146 58.2705 68.3324 60.757 68.3324 63.2863H60.4815C60.3887 62.4157 60.3126 61.5946 60.2165 60.7734C60.084 59.639 59.3917 59.1938 58.2985 59.2664C57.2053 59.3389 56.2016 59.3587 56.0923 60.8889C55.9101 63.4314 55.9896 63.6919 58.272 64.8956C61.0347 66.3466 63.7974 67.7943 66.5535 69.2617C67.6997 69.8751 68.4185 70.6831 68.4152 72.1505C68.4152 78.0666 68.5378 83.986 68.5609 89.9021C68.5609 91.053 68.339 92.2105 68.2297 93.3911H66.6628L67.9349 94.2221L65.7618 97.2164L65.2251 97.0383L64.7283 92.7084L64.2347 92.7843C64.3076 93.8527 64.4069 94.9179 64.4401 95.9864C64.4699 96.9196 64.2844 97.7078 62.7076 97.2164C62.5386 95.7094 62.3564 94.0803 62.1709 92.4479L61.9622 92.3952C61.8132 93.1734 61.5117 93.9616 61.5482 94.7299C61.5912 95.5642 61.949 96.3788 62.1875 97.2758H52.7234C52.8658 95.7522 53.1805 94.3078 53.0745 92.9261C52.9917 91.8247 52.3921 90.7595 52.0244 89.6778C52.9387 87.8443 51.8555 86.1757 51.6932 84.4279C51.4 85.9595 51.2052 87.5082 51.1101 89.0645C51.0936 89.2393 51.7329 89.4503 52.0642 89.6449ZM56.2712 52.8029C55.5689 52.6941 54.6679 51.5695 54.2836 53.2448L53.5515 52.7204L53.3561 52.8688C53.5515 53.314 53.747 53.7625 53.9457 54.211L54.1975 53.901C54.6562 54.2245 55.1365 54.5165 55.6352 54.7749C55.761 54.8277 56.2082 54.5309 56.2414 54.3462C56.297 53.8337 56.307 53.3172 56.2712 52.8029ZM61.3627 63.1577C62.0616 62.2475 62.8633 61.6605 62.8368 61.1164C62.8103 60.5723 61.9655 60.0414 61.4786 59.5071L61.0811 59.7512C61.1606 60.7899 61.2467 61.8254 61.3627 63.1577ZM49.7453 93.9879L49.9474 93.9517C50.1892 93.1602 50.5669 92.3787 50.6364 91.574C50.7159 90.7067 50.5039 89.8163 50.4178 88.9359H50.1495V91.396H50.0137L49.7453 90.2846V93.9879ZM62.6281 77.4401C62.0645 77.9159 61.7084 78.5909 61.6349 79.3229C61.5613 80.055 61.7761 80.7868 62.2339 81.3643C62.3564 79.9925 62.4922 78.7163 62.6214 77.4401H62.6281ZM62.9129 72.1406L62.2802 72.0648C62.1831 73.0299 62.0848 73.9961 61.9854 74.9635L62.4823 75.0228C62.6192 74.0643 62.7606 73.1036 62.9063 72.1406H62.9129ZM63.1515 68.2065H62.6314L62.8401 71.4778L63.1515 71.458V68.2065ZM61.525 85.127L62.1113 85.0676C62.0119 84.0849 61.9147 83.1022 61.8198 82.1195L61.525 82.136V85.127Z" fill="white"/>
<path d="M201.648 67.4282C202.589 68.0284 203.222 68.6319 203.208 69.8751C203.139 75.8341 203.175 81.7963 203.169 87.7586C203.169 89.2524 203.453 89.447 204.947 89.3777C206.779 89.2953 208.614 89.358 210.513 89.358V97.0152C210.123 97.0765 209.73 97.1172 209.337 97.1373C205.03 97.1373 200.707 97.1175 196.391 97.1669C195.301 97.1669 194.92 96.8372 194.96 95.7423C195.082 92.5073 195.188 89.2689 195.179 86.0339C195.159 80.7345 195.029 75.4384 194.986 70.1422C194.986 69.5585 195.228 68.9781 195.338 68.3945C195.377 68.2164 195.377 68.0317 195.338 67.8536C195.235 67.4546 195.006 67.0655 195.006 66.6697C194.983 61.9375 195.006 57.202 194.976 52.4698C194.976 51.3684 195.347 51.0089 196.427 51.0452C198.319 51.1079 200.214 51.0815 202.105 51.0452C202.88 51.0452 203.215 51.2925 203.195 52.1071C203.106 55.8665 203.053 59.6291 202.996 63.3885C203.014 63.5988 203.054 63.8067 203.116 64.0085C203.314 64.9747 203.324 65.8585 202.36 66.5016C202.049 66.6994 201.897 67.0853 201.648 67.4282Z" fill="white"/>
<path d="M90.7156 51.2035V56.3116L90.9409 56.3677L91.408 55.0486L91.5438 55.0717V58.9399L89.2614 59.0718C89.0593 58.6629 88.8904 58.3265 88.7214 57.9902L88.1682 59.0454H85.9123L83.9977 63.1478L84.372 63.438L84.6801 62.6531L84.9616 62.7752C84.6304 64.0118 84.2826 65.2484 83.8917 66.6632C84.372 67.2864 84.796 68.157 83.7757 69.2518C83.6399 68.8528 83.5471 68.5923 83.4445 68.3021L83.1993 68.2592L82.7786 69.8322C82.7389 69.0969 82.6958 68.2955 82.6428 67.3194L81.2383 69.1463C81.5695 70.3698 82.2089 71.8405 82.3049 73.3443C82.401 74.8481 81.9505 76.3749 81.8378 77.1927L82.6561 75.933C82.5136 76.1177 82.4937 73.5751 83.4577 72.5331L84.0507 73.463L84.7861 72.6683C84.676 73.3222 84.6184 73.9838 84.6138 74.6469C84.6436 75.0591 84.9119 75.4548 85.0709 75.8571L85.5082 75.7945C85.5082 82.6306 85.5082 89.4668 85.4883 96.3029C85.4883 96.6921 85.2333 97.0812 85.0974 97.4703L84.6933 97.3582C84.6171 96.8833 84.5376 96.4085 84.4581 95.9336L84.1269 95.9138L83.895 97.3219C82.7422 97.7638 82.3215 97.2659 82.2387 96.1413C82.0465 93.6384 81.7848 91.142 81.5761 88.6424C81.5104 88.2076 81.5433 87.7636 81.6722 87.3431C82.3944 85.5788 81.5762 84.0454 81.119 82.1558L80.4565 83.9299L80.0093 83.8706C80.2942 81.1764 80.5757 78.4821 80.8838 75.5439L79.5588 76.2694L79.8172 76.4705C79.4859 77.0839 79.1348 77.6841 78.8664 78.3205C78.7168 78.7676 78.606 79.2265 78.5352 79.6924H79.3799V86.6506L79.7112 86.7924C79.9165 86.2581 80.1252 85.7206 80.4101 84.9753V91.0629L80.218 91.1123L80.0126 89.5393C79.2408 90.3176 79.4097 91.2805 79.4031 92.2039C79.4031 93.6747 79.4031 95.1487 79.3865 96.6195C79.3865 97.5 78.6909 97.4835 78.1708 97.3384C77.985 97.2586 77.8219 97.1344 77.6959 96.9768C77.5699 96.8192 77.485 96.633 77.4486 96.4349C77.4155 88.5929 77.4155 80.7499 77.4486 72.9057C77.4486 71.6691 77.8163 70.4324 77.7965 69.1991C77.7799 68.1537 77.4487 67.1149 77.2366 65.964L78.1112 66.0992C78.1277 65.7695 78.2901 65.3408 78.1377 65.1297C76.8358 63.2962 77.5116 61.3406 77.7004 59.4148C77.6978 59.2644 77.6834 59.1145 77.6573 58.9663H73.3841C71.529 58.9663 71.2541 58.6959 71.2508 56.8558C71.2475 55.0156 71.2508 53.1689 71.2508 51.2035C75.3286 51.2035 79.1182 51.0584 82.878 51.3024C83.8354 51.3651 84.7066 51.1112 85.6275 51.187C86.6212 51.2695 87.6515 51.187 88.6651 51.187L90.7156 51.2035ZM84.6966 52.9315L83.0834 60.1271L84.4979 60.9878C84.6039 60.0414 84.7264 59.1411 84.7993 58.2375C84.8722 57.3339 84.9252 56.4897 84.9153 55.5993C84.9086 54.831 85.697 54.0033 84.6966 52.9315ZM89.7483 53.7856L89.2813 53.9208C88.95 53.591 88.6187 53.2613 88.2875 52.9678C87.9562 52.6743 87.4858 52.3907 87.0486 52.084C86.8498 53.69 86.6941 54.9497 86.4954 56.5392C87.3434 55.5796 87.6746 54.5375 88.8639 54.7815C88.897 55.2927 88.9235 55.728 88.95 56.1632L89.3773 56.1929C89.4988 55.3927 89.6225 54.5902 89.7483 53.7856ZM80.3538 75.1943C81.2747 73.2487 81.3111 71.5668 80.4399 69.918L79.7774 72.5562L79.2805 70.3533C78.1708 72.5561 80.1584 73.5092 80.3538 75.1943ZM82.1625 60.6382L82.5434 60.6712L82.8747 62.109L83.3815 61.9474C82.9067 60.6152 82.4341 59.2851 81.9637 57.9572L81.5066 58.0396V63.1313C81.8459 62.856 82.0798 62.4729 82.1691 62.0464C82.2084 61.5777 82.2062 61.1065 82.1625 60.6382ZM78.7936 66.4488C78.3265 68.1438 78.3265 68.1438 79.4163 68.5758L80.2047 67.5865L78.7936 66.4488ZM79.6217 58.7091C81.0395 57.8253 80.5757 56.7997 80.5261 55.8533L80.1584 55.7807L79.6217 58.7091Z" fill="white"/>
<path d="M117.677 110.493C119.393 114.618 117.806 118.506 118.141 122.411L117.501 122.437C117.28 118.907 117.06 115.374 116.839 111.838L116.458 111.815C115.537 113.169 114.999 114.744 114.901 116.376C114.301 123.225 115.113 130.025 115.544 136.842C115.643 138.415 115.699 139.998 115.643 141.571C115.626 142.003 115.11 142.771 114.838 142.761C114.351 142.761 113.513 142.309 113.463 141.973C113.209 140.169 113.116 138.346 113.185 136.525C113.394 133.119 113.93 129.729 114.096 126.319C114.219 123.793 113.92 121.25 113.904 118.714C113.904 116.877 114.043 115.037 114.109 113.2C114.139 112.761 114.128 112.319 114.076 111.881C113.589 108.828 113.082 105.781 112.552 102.585L111.019 102.318C111.681 101.385 112.214 101.167 113.152 101.721C113.606 101.988 114.454 102.051 114.874 101.82C116.481 100.877 118.081 100.831 119.843 101.447L118.82 103.729L121.705 103.4L121.761 103.591L120.599 104.175C121.688 104.834 122.106 106.133 123.669 105.635C124.504 105.372 126.598 107.136 126.687 108.218C126.763 109.138 126.389 110.094 126.283 111.04C126.243 111.416 126.253 112.03 126.465 112.158C127.093 112.492 127.771 112.722 128.473 112.841C128.585 112.861 128.883 112.294 128.976 111.964C129.022 111.541 129.022 111.114 128.976 110.691C129.708 110.852 130.745 110.856 130.828 111.136C131.123 112.148 131.11 113.253 131.189 114.325C131.225 114.839 131.05 115.433 131.245 115.865C132.073 117.689 131.64 118.48 129.629 118.615C129.298 118.638 128.95 118.694 128.42 118.76V127.78L128.006 127.813C127.929 127.479 127.874 127.141 127.84 126.8C127.757 124.696 127.668 122.596 127.641 120.492C127.641 119.793 127.472 119.397 126.737 119.149C126.276 118.991 125.945 118.447 125.518 118.041C125.415 118.401 125.233 119.011 125.054 119.618L124.779 119.664C124.686 119.252 124.57 118.843 124.504 118.427C124.189 116.531 123.934 114.628 123.55 112.749C123.471 112.343 122.951 112.026 122.633 111.67C122.331 112.076 121.811 112.458 121.761 112.894C121.225 117.715 121.569 122.52 122.129 127.318C122.32 128.794 122.431 130.279 122.46 131.766C122.46 132.205 121.95 132.644 121.675 133.086C121.364 132.673 120.807 132.278 120.781 131.849C120.655 129.87 120.731 127.908 120.632 125.943C120.473 122.708 120.214 119.479 120.042 116.244C119.966 114.803 120.042 113.355 119.969 111.911C119.943 111.397 119.847 110.628 119.519 110.444C119.128 110.209 118.439 110.447 117.677 110.493Z" fill="white"/>
<path d="M108.481 79.5209C108.193 78.4887 107.766 77.3082 107.55 76.0913C107.408 75.2735 107.587 74.4029 107.583 73.5587C107.568 73.1383 107.522 72.7195 107.448 72.3055C107.421 72.1439 107.272 71.9758 107.302 71.834C107.766 69.5091 108.325 67.2172 108.696 64.8692C108.882 63.7216 108.73 62.5179 108.73 61.3275C110.227 60.9185 111.267 61.5055 111.048 66.2311C111.294 66.2608 111.545 66.3004 111.797 66.3169C112.049 66.3334 112.301 66.3169 112.731 66.3169L111.963 65.2287L113.265 64.49C114.023 66.5082 114.295 68.4472 113.791 70.4423C113.512 71.4102 113.155 72.3541 112.725 73.2652C112.602 73.5422 112.277 73.7334 112.042 73.9643C111.839 73.7168 111.668 73.4454 111.532 73.1563C111.402 72.7048 111.302 72.2455 111.231 71.7812C110.72 71.5934 110.195 71.4478 109.66 71.3459C109.518 71.3465 109.379 71.3806 109.253 71.4454C109.127 71.5101 109.018 71.6038 108.935 71.7185C108.859 71.8537 109.101 72.1934 109.236 72.4242C109.561 72.878 109.854 73.3528 110.114 73.8456C110.777 75.412 111.323 77.0377 112.049 78.5745C112.917 80.408 112.619 82.1789 112.211 84.0124C112.026 83.9761 111.973 83.9827 111.953 83.9596C111.602 83.5507 111.254 83.1385 110.906 82.7296C110.959 83.3067 110.787 84.1509 111.101 84.4147C112.191 85.3282 111.403 86.4659 111.655 87.4618C112.168 89.5064 112.463 91.5905 114.374 92.9426C112.466 92.4347 111.535 91.0596 111.062 89.2953C110.82 88.3785 110.495 87.5739 109.356 87.3167C109.597 91.5377 109.839 95.7094 110.084 99.8842C110.084 100.102 110.22 100.349 110.154 100.544C109.987 100.902 109.795 101.248 109.578 101.579C109.289 101.249 108.769 100.946 108.756 100.613C108.716 99.66 108.922 98.6971 108.961 97.7374C109.061 95.3301 109.25 92.9162 109.14 90.5188C109.081 89.2557 108.405 88.029 108.147 86.7594C108.028 85.9949 108.021 85.2174 108.127 84.451C108.196 83.6826 108.441 82.9307 108.521 82.1624C108.541 81.9546 108.269 81.6743 108.07 81.5028C107.754 81.2286 107.422 80.972 107.077 80.7345L108.481 79.5209Z" fill="white"/>
<path d="M140.203 39.1405C140.91 40.589 141.061 42.2453 140.627 43.7969C140.438 44.5817 140.504 45.4226 140.415 46.2306C140.325 47.3502 140.174 48.4643 139.964 49.5678C139.762 50.478 139.808 51.0353 140.921 51.0353C141.862 51.0353 142.495 51.408 142.677 52.4434C142.745 52.6272 142.852 52.7943 142.99 52.9336C143.129 53.073 143.295 53.1813 143.479 53.2514C144.129 53.4503 144.793 53.6002 145.466 53.6999C143.88 54.5441 142.555 54.0593 141.693 52.7468C141.205 52.1138 140.496 51.6865 139.706 51.5498C139.047 51.4167 138.362 51.489 137.746 51.7569C137.129 52.0247 136.611 52.4752 136.261 53.0469C135.267 54.7881 133.611 54.7452 132.285 54.4221C130.049 53.8878 128.363 54.9134 126.346 55.5829V53.3437C124.945 54.0989 124.667 54.9728 125.286 56.2028C126.204 58.0166 124.832 60.3744 122.825 60.4404C122.605 60.4655 122.382 60.4655 122.162 60.4404C120.642 60.1337 119.684 60.7339 119.161 62.1717C119.068 62.4223 118.694 62.5707 118.449 62.7686C118.273 62.5377 117.942 62.3036 117.949 62.0793C117.985 60.5723 116.922 60.7866 116.027 60.8724C115.481 60.9251 114.954 61.2022 114.301 61.4132C114.364 60.5459 114.424 59.7413 114.484 58.9465C112.847 58.6168 112.496 58.775 111.131 60.348C110.72 59.5137 111.082 58.6431 112.059 58.1155C114.709 56.6843 116.146 57.1262 117.713 59.9721C118.611 59.0125 119.515 58.4683 121.026 58.7091C122.02 58.8707 123.219 57.9209 124.322 57.4691C124.163 56.8723 123.809 56.0182 123.736 55.1377C123.673 54.5652 123.783 53.987 124.054 53.4779C124.324 52.9688 124.742 52.5522 125.253 52.2819C126.286 51.685 127.24 51.8828 128.208 52.5358C128.403 52.627 128.616 52.6743 128.832 52.6743C129.048 52.6743 129.261 52.627 129.457 52.5358C130.291 52.0939 130.891 52.0279 131.444 52.9513C131.57 53.159 132.405 53.258 132.547 53.0931C133.106 52.4371 133.579 51.7136 133.955 50.9397C134.677 49.4623 135.307 47.9421 136.125 46.4944C137.009 48.1103 136.095 49.4623 135.658 50.9232C137.116 49.3915 138.172 47.5262 138.735 45.4919C139.285 43.4506 139.702 41.3532 140.203 39.1405ZM137.254 50.9364C139.146 49.8481 139.888 48.1234 139.358 46.468C138.689 47.8992 138.053 49.2513 137.258 50.9364H137.254Z" fill="white"/>
<path d="M128.913 101.273C128.615 100.831 128.355 100.366 128.135 99.881C127.661 98.5322 127.048 98.1332 125.614 98.3046C123.958 98.4992 122.301 98.796 120.645 98.7861C119.946 98.7861 119.178 98.1859 118.588 97.688C118.376 97.5099 118.429 96.5503 118.644 96.425C119.343 96.0552 120.092 95.7875 120.867 95.6302C121.635 95.4422 122.523 95.561 123.186 95.218C125.644 93.955 128.486 94.8586 129.619 97.3879C129.778 97.7473 129.89 98.1299 130.053 98.4893C130.884 100.3 130.888 100.3 128.913 101.273Z" fill="white"/>
<path d="M142.896 42.0029L144.058 43.7837L144.489 43.6518L143.495 37.0563H143.187L142.747 38.3556C142.591 37.086 142.458 36.0077 142.303 34.7479L143.568 35.325C143.452 34.217 143.356 33.2871 143.237 32.0999C144.35 32.9639 145.377 33.5839 145.321 35.17L144.052 34.7446C144.847 37.6433 145.582 40.2518 146.268 42.8735C146.49 43.7342 146.583 44.6246 146.735 45.5117C143.624 45.8381 142.982 45.2445 142.896 42.0029Z" fill="white"/>
<path d="M126.952 103.337L128.592 105.606L130.401 104.738C130.818 105.586 131.063 106.387 131.543 106.981C132.431 108.082 133.707 108.043 134.932 107.69C135.313 107.581 135.578 107.096 135.926 106.809C136.152 106.563 136.437 106.377 136.754 106.269C137.229 106.249 137.704 106.283 138.172 106.368C138.016 107.664 137.145 108.422 135.456 108.6C133.66 108.788 131.934 108.732 130.646 107.126C130.467 106.902 129.811 106.971 129.394 107.037C128.247 107.218 127.118 106.961 126.594 106.018C126.207 105.322 126.439 104.287 126.396 103.403L126.952 103.337Z" fill="white"/>
<path d="M135.27 78.6041C136.486 80.5828 136.102 83.7453 134.502 85.3414C132.076 87.7868 129.079 89.5961 125.78 90.6078C125.512 90.6532 125.242 90.6796 124.971 90.6869C130.096 87.8146 135.005 85.1699 135.27 78.6041Z" fill="white"/>
<path d="M146.271 103.934C148.868 103.001 151.403 104.854 151.005 107.278C150.892 107.977 149.902 108.597 149.19 109.078C149.057 109.164 148.153 108.458 147.914 107.967C147.278 106.664 146.808 105.283 146.271 103.934Z" fill="white"/>
<path d="M153.039 65.3045C153.039 65.8849 152.91 66.4026 153.065 66.8181C153.509 68.0284 152.923 68.3153 151.886 68.3549C150.849 68.3944 149.783 68.5264 148.733 68.5066C148.322 68.5066 147.921 68.1768 147.517 67.9987C147.677 67.6293 147.861 67.2703 148.067 66.9237C148.206 66.7159 148.497 66.6137 148.65 66.4125C150.097 64.49 150.704 64.3284 153.039 65.3045Z" fill="white"/>
<path d="M134.502 67.171C133.041 67.9921 128.92 68.223 126.104 67.6393C127.429 66.65 128.357 65.4727 130.043 65.5386C131.729 65.6046 133.329 65.6573 134.502 67.171Z" fill="white"/>
<path d="M134.313 45.2017C136.721 43.6485 136.509 41.5082 135.969 39.2229C135.823 38.5865 136.138 37.8445 136.241 37.1487L136.615 37.1784L137.032 40.664H137.48C137.672 39.9517 137.867 39.2394 138.059 38.5271L138.391 38.4875C138.424 39.5428 138.781 40.73 138.417 41.627C137.877 42.946 136.877 44.12 135.956 45.2544C135.727 45.5347 135.038 45.449 134.565 45.5314L134.313 45.2017Z" fill="white"/>
<path d="M113.831 79.9463C112.198 75.811 115.819 72.4045 120.287 71.0425C117.306 73.4597 114.934 76.0748 113.831 79.9463Z" fill="white"/>
<path d="M147.159 50.6033L148.686 52.7172C149.597 51.7278 150.439 50.3824 151.933 51.2794C152.843 51.8301 153.556 52.7106 153.175 54.0065C153.055 53.5976 153.046 53.0799 152.784 52.8062C152.447 52.4745 152.001 52.2754 151.528 52.2456C151.313 52.2456 151.038 52.7765 150.866 53.1096C150.667 53.502 150.601 54.244 150.382 54.2836C149.877 54.3256 149.373 54.1903 148.958 53.901C148.393 53.5571 147.93 53.0712 147.614 52.4923C147.298 51.9134 147.141 51.2619 147.159 50.6033Z" fill="white"/>
<path d="M134.425 72.012L133.461 74.4853L129.97 70.716C130.232 70.5116 130.573 70.2741 130.888 70.0004C131.918 69.11 131.954 69.1496 132.398 70.4852C132.524 70.8677 132.984 71.1777 133.349 71.4382C133.693 71.6564 134.052 71.8482 134.425 72.012Z" fill="white"/>
<path d="M140.325 73.3179L137.98 75.1383C137.808 74.8085 137.473 74.4787 137.5 74.1654C137.575 73.314 137.736 72.4721 137.98 71.6526C138.044 71.4971 138.145 71.359 138.273 71.2496C138.402 71.1401 138.554 71.0624 138.719 71.0227C139.567 70.9436 140.385 71.9428 140.325 73.3179Z" fill="white"/>
<path d="M143.247 58.0133C145.171 56.1666 147.156 56.2556 148.878 57.1987C149.816 57.7132 150.243 59.151 150.892 60.1667C150.892 60.1667 150.776 60.2722 150.892 60.1832C150.144 59.7676 149.471 59.3983 148.805 59.0191C148.614 58.9283 148.443 58.8005 148.302 58.6431C147.152 57.1229 146.682 56.958 144.863 57.4988C144.436 57.6307 144.025 57.7692 143.247 58.0133Z" fill="white"/>
<path d="M161.797 47.6651C161.191 48.0641 160.575 48.7863 159.989 48.7665C159.402 48.7467 158.79 48.0014 158.038 47.4474C159.409 46.3031 160.486 46.8604 161.556 47.1638C161.635 47.3419 161.715 47.5035 161.797 47.6651Z" fill="white"/>
<path d="M127.893 34.7809C126.836 34.4281 125.753 34.1214 124.733 33.696C123.964 33.3662 123.921 32.7396 124.676 32.3307C125.704 31.7643 126.817 31.3678 127.972 31.1567C127.276 31.429 126.594 31.7395 125.932 32.0867C125.071 32.5879 125.081 33.1486 125.958 33.6399C126.617 33.9672 127.294 34.2567 127.986 34.5072L127.893 34.7809Z" fill="white"/>
<path d="M151.684 30.8929C152.827 31.2524 154.003 31.5525 155.103 31.9878C155.981 32.3175 155.981 32.9771 155.202 33.4124C154.259 33.962 153.221 34.33 152.141 34.4973C152.539 34.3684 152.921 34.1958 153.281 33.9829C153.724 33.6222 154.144 33.2345 154.54 32.8221C154.161 32.4405 153.746 32.096 153.301 31.7932C152.752 31.5362 152.184 31.3234 151.601 31.1567L151.684 30.8929Z" fill="white"/>
<path d="M85.4155 71.6625L84.3985 70.0136C85.1306 69.608 85.442 69.1298 84.9981 68.0119C84.6668 67.2139 85.1339 66.1124 85.4155 65.1726V71.6625Z" fill="white"/>
<path d="M130.285 57.7033C129.413 58.9993 128.493 60.3744 127.452 61.9276C127.585 59.2499 128.741 57.7956 130.285 57.7033Z" fill="white"/>
<path d="M137.781 98.6377C137.629 96.4129 137.477 94.188 137.327 91.9632L137.712 91.9302C137.871 94.1572 138.028 96.3821 138.185 98.6047L137.781 98.6377Z" fill="white"/>
<path d="M140.955 95.7094C140.829 93.5263 140.702 91.3443 140.574 89.1634L140.938 89.1436C141.079 91.3421 141.224 93.5307 141.372 95.7094H140.955Z" fill="white"/>
<path d="M165.922 84.9193C166.584 87.4783 166.432 87.8509 164.812 88.062C165.216 86.9243 165.571 85.9218 165.922 84.9193Z" fill="white"/>
<path d="M143.694 103.007L142.369 103.103C142.237 102.024 142.107 101.012 141.981 99.9997L142.121 99.937C142.617 100.893 143.104 101.853 143.694 103.007Z" fill="white"/>
<path d="M167.23 48.8852C167.678 48.9523 168.088 49.1772 168.384 49.519C168.68 49.8609 168.843 50.2971 168.843 50.7484L168.456 51.1046L166.776 49.3073L167.23 48.8852Z" fill="white"/>
<path d="M131.047 81.6216C130.692 80.3849 130.384 79.3132 130.013 78.0271C131.285 79.1747 131.673 80.5729 131.047 81.6216Z" fill="white"/>
<path d="M173.136 104.313C173.534 104.811 173.958 105.111 173.958 105.411C173.958 105.711 173.474 106.18 173.239 106.16C173.049 106.12 172.872 106.033 172.725 105.907C172.577 105.782 172.464 105.621 172.394 105.441C172.335 105.18 172.775 104.828 173.136 104.313Z" fill="white"/>
<path d="M125.24 73.0805C123.149 72.7903 121.235 71.8702 119.333 73.1695C120.814 72.0219 123.345 72.0054 125.24 73.0805Z" fill="white"/>
<path d="M139.172 80.8994C139.113 82.0338 139.066 82.9637 139.02 83.8508C137.933 83.089 137.924 82.4394 139.172 80.8994Z" fill="white"/>
<path d="M157.428 46.8868C157.319 46.9363 157.2 47.0451 157.097 47.0253C156.537 46.9198 155.981 46.7846 155.441 46.6593C155.53 46.4548 155.646 46.0624 155.706 46.069C156.318 46.158 156.925 46.3097 157.531 46.4449L157.428 46.8868Z" fill="white"/>
<path d="M157.186 62.4091L155.57 60.5987L155.99 60.2161L157.574 62.0299L157.186 62.4091Z" fill="white"/>
<path d="M158.369 106.437C158.087 107.017 157.902 107.683 157.484 108.142C157.259 108.392 156.643 108.293 156.202 108.353C156.173 107.894 155.944 107.199 156.153 107.034C156.683 106.592 157.408 106.374 158.054 106.087L158.369 106.437Z" fill="white"/>
<path d="M169.208 71.369C170.718 71.3327 171.02 71.646 170.944 73.3311L169.208 71.369Z" fill="white"/>
<path d="M141.061 23.4137C140.428 24.8779 139.838 26.2333 139.252 27.5886C142.051 26.3718 142.419 25.4484 141.061 23.4137Z" fill="white"/>
<path d="M141.816 4.68605C140.68 4.9037 139.537 5.31591 138.414 5.27634C137.291 5.23676 136.274 4.72562 135.061 4.38266H141.773C141.786 4.48489 141.803 4.58382 141.816 4.68605Z" fill="white"/>
<path d="M143.075 24.5646L143.254 20.6964H143.618C143.962 22.0155 144.363 23.3016 143.075 24.5646Z" fill="white"/>
<path d="M243.42 53.7922C243.188 51.9982 243.191 51.9949 244.921 52.2192C245.338 53.5482 244.278 53.5152 243.42 53.7922Z" fill="white"/>
<path d="M244.083 69.918C243.162 69.918 242.138 70.1752 241.923 69.8718C241.26 68.9221 242.161 68.711 242.854 68.7737C243.178 68.8034 243.46 69.3145 244.083 69.918Z" fill="white"/>
<path d="M41.275 58.1188L42.6299 56.1665L42.9611 56.3281V58.4815L41.275 58.1188Z" fill="white"/>
<path d="M56.2712 52.8029C56.307 53.3172 56.297 53.8337 56.2414 54.3462C56.2082 54.5309 55.761 54.8277 55.6352 54.7749C55.1365 54.5165 54.6562 54.2245 54.1975 53.901L53.9457 54.211C53.747 53.7625 53.5515 53.314 53.3561 52.8688L53.5515 52.7204L54.2836 53.2448C54.6679 51.5695 55.5689 52.6842 56.2712 52.8029Z" fill="white"/>
<path d="M52.0642 89.6449C51.7329 89.4503 51.1068 89.2392 51.1168 89.0678C51.2118 87.5115 51.4066 85.9628 51.6998 84.4312C51.8555 86.179 52.9387 87.8476 52.0311 89.6811L52.0642 89.6449Z" fill="white"/>
<path d="M61.3627 63.1577C61.2533 61.8386 61.1672 60.7899 61.0811 59.7512L61.4786 59.5071C61.9655 60.0414 62.8036 60.5591 62.8368 61.1164C62.8699 61.6737 62.055 62.2475 61.3627 63.1577Z" fill="white"/>
<path d="M49.7387 93.9879V90.278L50.007 91.3894H50.1429V88.9589H50.4112C50.4973 89.8394 50.7093 90.7298 50.6298 91.5971C50.5603 92.4017 50.1826 93.1833 49.9408 93.9748L49.7387 93.9879Z" fill="white"/>
<path d="M62.6214 77.4401C62.4922 78.7163 62.3664 79.9925 62.2272 81.3643C61.7695 80.7868 61.5547 80.055 61.6283 79.3229C61.7018 78.5909 62.0578 77.9159 62.6214 77.4401Z" fill="white"/>
<path d="M62.9063 72.1406C62.7628 73.1036 62.6192 74.0643 62.4757 75.0228L61.9788 74.9635C62.0782 73.9961 62.1764 73.0299 62.2736 72.0648L62.9063 72.1406Z" fill="white"/>
<path d="M63.1448 68.2065V71.4811L62.8334 71.5009L62.6248 68.2296L63.1448 68.2065Z" fill="white"/>
<path d="M61.5183 85.127V82.136L61.8132 82.1195C61.9081 83.1022 62.0053 84.0849 62.1047 85.0676L61.5183 85.127Z" fill="white"/>
<path d="M84.6966 52.9315C85.6904 53.9868 84.9086 54.831 84.9153 55.6158C84.9153 56.4897 84.8689 57.3669 84.7993 58.254C84.7297 59.1411 84.6039 60.0578 84.4979 61.0043L83.0834 60.1436L84.6966 52.9315Z" fill="white"/>
<path d="M89.7483 53.7856C89.6225 54.5902 89.4944 55.3927 89.3641 56.1929L88.9368 56.1633C88.9103 55.728 88.8838 55.2927 88.8506 54.7815C87.6614 54.5375 87.3301 55.5796 86.4821 56.5392C86.6809 54.9497 86.8366 53.69 87.0353 52.084C87.4726 52.3907 87.8933 52.6545 88.2742 52.9678C88.6552 53.2811 88.9367 53.6009 89.268 53.9208L89.7483 53.7856Z" fill="white"/>
<path d="M80.3538 75.1943C80.1584 73.5092 78.1708 72.5562 79.2805 70.3665L79.7774 72.5693L80.4399 69.9312C81.3111 71.5767 81.2747 73.2487 80.3538 75.1943Z" fill="white"/>
<path d="M82.1625 60.6382C82.1985 61.1072 82.1929 61.5784 82.1459 62.0464C82.0566 62.473 81.8227 62.856 81.4834 63.1313V58.0396L81.9405 57.9572C82.4131 59.2763 82.8857 60.6064 83.3583 61.9474L82.8515 62.109L82.5202 60.6712L82.1625 60.6382Z" fill="white"/>
<path d="M78.7936 66.4488L80.2047 67.5997L79.4163 68.589C78.3265 68.1438 78.3265 68.1438 78.7936 66.4488Z" fill="white"/>
<path d="M79.6217 58.7091L80.1584 55.7807L80.5261 55.8533C80.5757 56.7997 81.0395 57.8253 79.6217 58.7091Z" fill="white"/>
<path d="M137.258 50.9364C138.053 49.2513 138.689 47.8992 139.361 46.468C139.891 48.1234 139.149 49.8481 137.258 50.9364Z" fill="white"/>
</svg>
