<svg width="42" height="42" viewBox="0 0 42 42" fill="none" xmlns="http://www.w3.org/2000/svg">
<path d="M42 42H0V0H36.1667L42 5.83333V42Z" fill="#808692"/>
<path fill-rule="evenodd" clip-rule="evenodd" d="M34.843 28.1744C32.4484 29.9434 30.128 31.0175 27.8402 31.7293C27.8038 31.7407 27.7645 31.727 27.7418 31.6958C27.2135 30.9559 26.7337 30.1756 26.3129 29.3565C26.2887 29.3086 26.3106 29.2507 26.3606 29.2317C27.1227 28.9417 27.8477 28.5953 28.5455 28.1858C28.6008 28.153 28.6038 28.0739 28.5531 28.0358C28.4055 27.9254 28.2587 27.809 28.1187 27.6925C28.0922 27.6712 28.0566 27.6666 28.0271 27.6811C23.4983 29.7859 18.5374 29.7859 13.9549 27.6811C13.9254 27.6681 13.8898 27.6727 13.8648 27.694C13.7248 27.8097 13.578 27.9254 13.4312 28.0358C13.3805 28.0739 13.3842 28.153 13.4395 28.1858C14.1373 28.5877 14.8623 28.9417 15.6237 29.2325C15.6736 29.2515 15.6971 29.3086 15.6721 29.3565C15.2611 30.1771 14.7806 30.9566 14.2425 31.6965C14.219 31.727 14.1804 31.7407 14.1441 31.7293C11.8668 31.0175 9.54718 29.9434 7.15186 28.1744C7.13219 28.1584 7.11781 28.134 7.11554 28.1081C6.62815 22.8534 7.6226 17.5332 11.2523 12.0783C11.2614 12.0638 11.2742 12.0524 11.2901 12.0463C13.0755 11.2212 14.9894 10.6145 16.9889 10.2681C17.0253 10.2628 17.0616 10.2795 17.0805 10.3115C17.328 10.7523 17.6103 11.3163 17.8018 11.7776C19.9095 11.4541 22.0505 11.4541 24.2029 11.7776C24.3936 11.3262 24.6661 10.7523 24.912 10.3115C24.931 10.278 24.9673 10.2613 25.0036 10.2681C27.0046 10.6152 28.9186 11.2227 30.7032 12.0463C30.7191 12.0524 30.732 12.0638 30.7395 12.0798C33.9015 16.7575 35.4636 22.0343 34.8793 28.1097C34.877 28.1355 34.8642 28.1584 34.843 28.1744ZM16.357 24.9087C17.7586 24.9087 18.8734 23.6352 18.8734 22.0701C18.8954 20.5172 17.7692 19.2315 16.357 19.2315C14.9554 19.2315 13.8406 20.5058 13.8406 22.0701C13.8406 23.6352 14.9773 24.9087 16.357 24.9087ZM25.6605 24.9087C27.0735 24.9087 28.1769 23.6352 28.1769 22.0701C28.1989 20.5172 27.0735 19.2315 25.6605 19.2315C24.2589 19.2315 23.1441 20.5058 23.1441 22.0701C23.1441 23.6352 24.2809 24.9087 25.6605 24.9087Z" fill="white"/>
<path fill-rule="evenodd" clip-rule="evenodd" d="M34.843 28.1744C32.4484 29.9434 30.128 31.0175 27.8402 31.7293C27.8038 31.7407 27.7645 31.727 27.7418 31.6958C27.2135 30.9559 26.7337 30.1756 26.3129 29.3565C26.2887 29.3086 26.3106 29.2507 26.3606 29.2317C27.1227 28.9417 27.8477 28.5953 28.5455 28.1858C28.6008 28.153 28.6038 28.0739 28.5531 28.0358C28.4055 27.9254 28.2587 27.809 28.1187 27.6925C28.0922 27.6712 28.0566 27.6666 28.0271 27.6811C23.4983 29.7859 18.5374 29.7859 13.9549 27.6811C13.9254 27.6681 13.8898 27.6727 13.8648 27.694C13.7248 27.8097 13.578 27.9254 13.4312 28.0358C13.3805 28.0739 13.3842 28.153 13.4395 28.1858C14.1373 28.5877 14.8623 28.9417 15.6237 29.2325C15.6736 29.2515 15.6971 29.3086 15.6721 29.3565C15.2611 30.1771 14.7806 30.9566 14.2425 31.6965C14.219 31.727 14.1804 31.7407 14.1441 31.7293C11.8668 31.0175 9.54718 29.9434 7.15186 28.1744C7.13219 28.1584 7.11781 28.134 7.11554 28.1081C6.62815 22.8534 7.6226 17.5332 11.2523 12.0783C11.2614 12.0638 11.2742 12.0524 11.2901 12.0463C13.0755 11.2212 14.9894 10.6145 16.9889 10.2681C17.0253 10.2628 17.0616 10.2795 17.0805 10.3115C17.328 10.7523 17.6103 11.3163 17.8018 11.7776C19.9095 11.4541 22.0505 11.4541 24.2029 11.7776C24.3936 11.3262 24.6661 10.7523 24.912 10.3115C24.931 10.278 24.9673 10.2613 25.0036 10.2681C27.0046 10.6152 28.9186 11.2227 30.7032 12.0463C30.7191 12.0524 30.732 12.0638 30.7395 12.0798C33.9015 16.7575 35.4636 22.0343 34.8793 28.1097C34.877 28.1355 34.8642 28.1584 34.843 28.1744ZM18.8734 22.0701C18.8734 23.6352 17.7586 24.9087 16.357 24.9087C14.9773 24.9087 13.8406 23.6352 13.8406 22.0701C13.8406 20.5058 14.9554 19.2315 16.357 19.2315C17.7692 19.2315 18.8954 20.5172 18.8734 22.0701ZM25.6605 24.9087C27.0735 24.9087 28.1769 23.6352 28.1769 22.0701C28.1989 20.5172 27.0735 19.2315 25.6605 19.2315C24.2589 19.2315 23.1441 20.5058 23.1441 22.0701C23.1441 23.6352 24.2809 24.9087 25.6605 24.9087Z" fill="white"/>
</svg>
