<svg width="42" height="42" viewBox="0 0 42 42" fill="none" xmlns="http://www.w3.org/2000/svg">
<path d="M42 42H0V0H36.1667L42 5.83333V42Z" fill="#808692"/>
<path fill-rule="evenodd" clip-rule="evenodd" d="M20.9971 33.599C23.3002 33.6045 25.4149 33.5464 27.4692 33.4215C28.9276 33.3329 30.192 32.8596 31.2279 32.0149C32.1855 31.234 32.8449 30.1567 33.1879 28.8127C33.5279 27.4804 33.5475 26.0499 33.5664 24.6665C33.5812 23.5835 33.5967 22.3006 33.5999 20.9995C33.5967 19.6982 33.5812 18.4155 33.5664 17.3325C33.5475 15.9491 33.5279 14.5186 33.1879 13.1861C32.8449 11.8421 32.1855 10.7648 31.2279 9.98388C30.192 9.13941 28.9276 8.66614 27.4692 8.5775C25.4149 8.4524 23.3002 8.39475 21.0025 8.39977C18.6998 8.3943 16.5849 8.4524 14.5306 8.5775C13.0722 8.66614 11.8078 9.13941 10.7719 9.98388C9.81432 10.7648 9.15485 11.8421 8.8119 13.1861C8.47191 14.5186 8.45231 15.9489 8.4334 17.3325C8.41859 18.4164 8.40309 19.7 8.3999 21.0022C8.40309 22.2988 8.41859 23.5826 8.4334 24.6665C8.45231 26.0499 8.47191 27.4804 8.8119 28.8127C9.15485 30.1567 9.81432 31.234 10.7719 32.0149C11.8078 32.8594 13.0722 33.3327 14.5306 33.4213C16.5849 33.5464 18.7003 33.6047 20.9971 33.599ZM13.6495 20.9995C13.6495 25.0202 16.9208 28.2912 20.9414 28.2912C24.9623 28.2912 28.2334 25.0202 28.2334 20.9995C28.2334 16.9789 24.9623 13.7079 20.9414 13.7079C16.9208 13.7079 13.6495 16.9789 13.6495 20.9995ZM27.3001 13.1245C27.3001 12.1579 28.0837 11.3745 29.0502 11.3745C30.0168 11.3745 30.8002 12.1579 30.8002 13.1245C30.8002 14.0911 30.0168 14.8745 29.0502 14.8745C28.0837 14.8745 27.3001 14.0911 27.3001 13.1245Z" fill="white"/>
<path d="M20.9414 16.0412C18.2074 16.0412 15.9829 18.2656 15.9829 20.9995C15.9829 23.7334 18.2074 25.9578 20.9414 25.9578C23.6757 25.9578 25.9 23.7334 25.9 20.9995C25.9 18.2656 23.6757 16.0412 20.9414 16.0412Z" fill="white"/>
</svg>
