<svg width="42" height="42" viewBox="0 0 42 42" fill="none" xmlns="http://www.w3.org/2000/svg">
<path d="M42 42H0V0H36.1667L42 5.83333V42Z" fill="#808692"/>
<path d="M16.276 22.7938V22.7956H17.1617L16.276 22.7938Z" fill="white"/>
<path d="M25.1331 22.7938V22.7956H26.0188L25.1331 22.7938Z" fill="white"/>
<path d="M34.9999 20.1033C34.9999 18.1235 33.4109 16.5135 31.457 16.5135C30.6758 16.5135 29.9336 16.772 29.3278 17.2405C27.3509 15.8494 24.7611 15.0202 22.0065 14.8102L23.4927 11.2779L27.8168 12.301C27.9549 13.6561 29.0745 14.7187 30.4473 14.7187C31.9123 14.7187 33.1045 13.5107 33.1045 12.0264C33.1045 10.542 31.9123 9.33407 30.4473 9.33407C29.5191 9.33407 28.7025 9.82048 28.2277 10.5546L23.1739 9.35741C22.7452 9.25869 22.3254 9.47946 22.1553 9.87971L20.1005 14.7617C17.1263 14.8658 14.292 15.7148 12.1521 17.1938C11.5693 16.7558 10.8466 16.5135 10.076 16.5135C8.12216 16.5135 6.5332 18.1235 6.5332 20.1033C6.5332 21.4153 7.24 22.6017 8.32411 23.2102C8.30993 23.3681 8.30462 23.5297 8.30462 23.693C8.30462 28.6414 13.8669 32.6673 20.7045 32.6673C27.5404 32.6673 33.1045 28.6414 33.1045 23.693C33.1045 23.553 33.0991 23.4148 33.0903 23.2766C34.2452 22.6807 34.9999 21.4656 34.9999 20.1033ZM30.4473 11.1289C30.9345 11.1289 31.333 11.531 31.333 12.0264C31.333 12.5218 30.9345 12.9238 30.4473 12.9238C29.9602 12.9238 29.5616 12.5218 29.5616 12.0264C29.5616 11.531 29.9602 11.1289 30.4473 11.1289ZM14.5046 22.7956C14.5046 21.8066 15.2999 21.0007 16.276 21.0007C17.252 21.0007 18.0474 21.8066 18.0474 22.7956C18.0474 23.7863 17.252 24.5904 16.276 24.5904C15.2999 24.5904 14.5046 23.7863 14.5046 22.7956ZM24.7947 28.7491C23.5725 29.6448 22.1376 30.0935 20.7045 30.0935C19.2715 30.0935 17.8366 29.6448 16.6143 28.7491C16.2175 28.4584 16.129 27.8966 16.4159 27.4963C16.7029 27.0961 17.2574 27.0063 17.6524 27.2953C19.4787 28.6325 21.9304 28.6361 23.7567 27.2953C24.1517 27.0063 24.7044 27.0925 24.9931 27.4963C25.2801 27.8984 25.1898 28.4584 24.7947 28.7491ZM25.1331 24.5904C24.1553 24.5904 23.3617 23.7863 23.3617 22.7956C23.3617 21.8066 24.1553 21.0007 25.1331 21.0007C26.1109 21.0007 26.9045 21.8066 26.9045 22.7956C26.9045 23.7863 26.1109 24.5904 25.1331 24.5904Z" fill="white"/>
</svg>
