<svg width="42" height="42" viewBox="0 0 42 42" fill="none" xmlns="http://www.w3.org/2000/svg">
<path d="M42 42H0V0H36.1667L42 5.83333V42Z" fill="#808692"/>
<path d="M6.88212 19.8698L31.2997 11.305C32.433 10.9326 33.4228 11.5565 33.0556 13.1155L33.0577 13.1136L28.9002 30.9324C28.592 32.1957 27.7669 32.5028 26.6125 31.9077L20.2812 27.6627L17.2274 30.3391C16.8897 30.6463 16.6048 30.9055 15.9506 30.9055L16.4001 25.044L28.1341 15.4002C28.6448 14.9913 28.0201 14.7609 27.3469 15.1679L12.8462 23.4735L6.59511 21.6995C5.2381 21.3078 5.20856 20.465 6.88212 19.8698Z" fill="white"/>
</svg>
