<svg width="42" height="42" viewBox="0 0 42 42" fill="none" xmlns="http://www.w3.org/2000/svg">
<path d="M42 42H0V0H36.1667L42 5.83333V42Z" fill="#808692"/>
<path d="M34.5335 12.9184C33.5269 13.3681 32.4544 13.6662 31.3362 13.811C32.4865 13.1114 33.3645 12.0121 33.7773 10.687C32.7048 11.3384 31.5206 11.7984 30.2586 12.0552C29.2402 10.9507 27.7888 10.2666 26.2054 10.2666C23.1333 10.2666 20.6601 12.8064 20.6601 15.92C20.6601 16.368 20.6973 16.7988 20.7887 17.2089C16.1755 16.9797 12.0935 14.7276 9.35131 11.297C8.87257 12.143 8.59176 13.1114 8.59176 14.1539C8.59176 16.1113 9.58138 17.8464 11.0565 18.851C10.165 18.8337 9.29041 18.5701 8.54946 18.1548C8.54946 18.1721 8.54946 18.1945 8.54946 18.2169C8.54946 20.9635 10.4729 23.2448 12.9952 23.7704C12.5435 23.8961 12.0512 23.9564 11.5403 23.9564C11.1851 23.9564 10.8264 23.9358 10.4898 23.86C11.2088 26.0982 13.2489 27.7438 15.6748 27.7972C13.7869 29.3014 11.3898 30.2078 8.79476 30.2078C8.3397 30.2078 7.90325 30.1871 7.4668 30.1302C9.92479 31.7448 12.8378 32.6666 15.9793 32.6666C26.1902 32.6666 31.7727 24.0512 31.7727 16.5834C31.7727 16.3336 31.7642 16.0923 31.7524 15.8528C32.8536 15.0568 33.779 14.0625 34.5335 12.9184Z" fill="white"/>
</svg>
