<svg width="42" height="42" viewBox="0 0 42 42" fill="none" xmlns="http://www.w3.org/2000/svg">
<path d="M42 42H0V0H36.1667L42 5.83333V42Z" fill="#808692"/>
<path fill-rule="evenodd" clip-rule="evenodd" d="M31.9045 12.2512C33.1237 12.5665 34.0852 13.4892 34.4134 14.6599C35.0232 16.7981 34.9998 21.2552 34.9998 21.2552C34.9998 21.2552 34.9997 25.6895 34.4136 27.828C34.0852 28.9984 33.1239 29.9214 31.9045 30.2364C29.6768 30.7993 20.7665 30.7993 20.7665 30.7993C20.7665 30.7993 11.8794 30.7993 9.62849 30.2141C8.40901 29.8989 7.44776 28.9759 7.11938 27.8055C6.5332 25.6895 6.5332 21.2327 6.5332 21.2327C6.5332 21.2327 6.5332 16.7981 7.11938 14.6599C7.44754 13.4894 8.43246 12.544 9.62827 12.2289C11.8559 11.666 20.7663 11.666 20.7663 11.666C20.7663 11.666 29.6768 11.666 31.9045 12.2512ZM25.3388 21.2327L17.9292 25.3295V17.1359L25.3388 21.2327Z" fill="white"/>
</svg>
