<svg width="217" height="125" viewBox="0 0 217 125" fill="none" xmlns="http://www.w3.org/2000/svg">
<path d="M216.023 62.2168C216.016 73.6507 212.259 84.8622 205.165 94.6228C198.071 104.383 187.913 112.316 175.805 117.552C175.096 117.864 174.376 118.162 173.65 118.45C173.324 118.584 173.004 118.709 172.673 118.834C170.604 119.63 168.481 120.345 166.305 120.978C164.59 121.482 162.83 121.938 161.052 122.332C144.262 126.085 126.436 124.783 110.671 118.651C110.025 118.397 109.379 118.138 108.745 117.869C96.941 112.913 86.928 105.4 79.7402 96.1083C72.5524 86.8163 68.4504 76.0817 67.8581 65.0136C67.2659 53.9456 70.2047 42.9455 76.3711 33.1499C82.5375 23.3543 91.7078 15.1186 102.934 9.29364C114.161 3.46867 127.037 0.265763 140.231 0.0158369C153.426 -0.234089 166.461 2.47804 177.989 7.87199C189.517 13.2659 199.12 21.1461 205.807 30.6982C212.493 40.2503 216.02 51.1279 216.023 62.2072V62.2168Z" fill="url(#paint0_linear_1_597)"/>
<path d="M112.849 100.623L104.663 89.8894C104.663 89.8894 127.339 67.8837 129.608 66.5834C129.608 66.5834 118.17 82.6917 112.849 100.623Z" fill="url(#paint1_linear_1_597)"/>
<path d="M104.663 89.8893L89.2299 101.406L60.8384 89.8893L39.1174 90.8874C39.1174 90.8874 52.6473 94.7262 56.4541 94.5678L60.2668 94.4095C60.2668 94.4095 83.5825 113.282 88.9441 114.721C94.3058 116.161 111.917 104.875 111.917 104.875L112.94 100.657L104.663 89.8893Z" fill="url(#paint2_linear_1_597)"/>
<path d="M147.248 63.9779C145.103 64.8496 142.797 65.4078 140.429 65.6285C137.691 65.974 133.529 64.6976 133.529 64.6976C136.673 62.6199 135.941 57.7207 135.941 57.7207L136.01 57.6919C139.365 57.476 142.172 55.8781 144.133 54.333C143.424 58.5268 147.248 63.9779 147.248 63.9779Z" fill="url(#paint3_linear_1_597)"/>
<path d="M147.248 48.3733V51.2524C146.354 52.3709 145.311 53.3997 144.138 54.3186C142.178 55.8685 139.371 57.4664 136.016 57.6775C134.492 57.7753 132.961 57.5868 131.534 57.1257C122.389 54.2466 128.819 39.0116 128.819 39.0116C131.723 32.812 144.87 35.811 144.87 35.811C146.63 37.572 146.968 42.4904 146.899 42.9703C146.606 43.6444 146.223 44.2884 145.756 44.8896C145.756 44.8896 148.254 42.9127 149.111 44.2275C149.969 45.5422 147.248 48.3733 147.248 48.3733Z" fill="url(#paint4_linear_1_597)"/>
<path d="M147.248 51.262V48.3829C147.248 48.3829 149.963 45.5758 149.106 44.2515C148.248 42.9271 145.75 44.9137 145.75 44.9137C146.217 44.3124 146.6 43.6684 146.894 42.9943C146.962 42.5144 146.676 37.8743 144.864 35.835C144.864 35.835 131.717 32.836 128.814 39.0356C128.814 39.0356 125.053 38.2342 121.812 34.4771C116.513 28.3303 122.84 27.5769 129.111 28.7621C136.719 30.2017 144.344 25.48 153.061 30.2784C161.778 35.0769 153.964 45.9837 147.248 51.262Z" fill="#262F72"/>
<g filter="url(#filter0_d_1_597)">
<path d="M87.4123 24.4723H13.2467C11.4536 24.4723 10 25.6925 10 27.1978V84.6063C10 86.1116 11.4536 87.3318 13.2467 87.3318H87.4123C89.2054 87.3318 90.659 86.1116 90.659 84.6063V27.1978C90.659 25.6925 89.2054 24.4723 87.4123 24.4723Z" fill="white"/>
</g>
<path d="M22.3523 35.8638C22.1464 36.0593 21.8819 36.2051 21.5863 36.286C21.2336 36.3888 20.8622 36.4391 20.4888 36.4348C20.1014 36.4422 19.7186 36.3627 19.3799 36.2044C19.0591 36.048 18.8021 35.8139 18.6426 35.5327C18.4609 35.2087 18.369 34.8543 18.3739 34.4962V34.2179C18.3635 33.8536 18.4474 33.4918 18.6197 33.1574C18.7678 32.8738 19.015 32.6345 19.3285 32.4713C19.7079 32.2988 20.1366 32.2179 20.5674 32.2373C20.9982 32.2568 21.4141 32.376 21.7692 32.5816C22.1102 32.8434 22.3154 33.2068 22.3408 33.5941H21.3634C21.3412 33.3985 21.2357 33.2162 21.0662 33.0807C20.8865 32.9651 20.6634 32.9072 20.4374 32.9175C20.285 32.9104 20.133 32.9362 19.9959 32.9925C19.8588 33.0487 19.7411 33.1336 19.6543 33.239C19.4537 33.5296 19.3602 33.8635 19.3857 34.1987V34.4578C19.3609 34.7954 19.4628 35.1311 19.6772 35.4175C19.7761 35.527 19.9054 35.6144 20.0539 35.6721C20.2024 35.7298 20.3655 35.7561 20.5289 35.7486C20.8183 35.7698 21.1064 35.6978 21.3348 35.5471V34.8417H20.4203V34.2227H22.3408L22.3523 35.8638Z" fill="#64B5F6"/>
<path d="M81.1247 32.2313H28.5715C27.9306 32.2313 27.4111 32.6674 27.4111 33.2054V36.7467C27.4111 37.2846 27.9306 37.7207 28.5715 37.7207H81.1247C81.7656 37.7207 82.2851 37.2846 82.2851 36.7467V33.2054C82.2851 32.6674 81.7656 32.2313 81.1247 32.2313Z" fill="#E7EEF2"/>
<path d="M82.2851 40.8206H27.4111V41.7802H82.2851V40.8206Z" fill="#BBDEFB"/>
<path d="M82.2851 42.9799H27.4111V43.9396H82.2851V42.9799Z" fill="#E7E8E9"/>
<path d="M82.2851 45.1392H27.4111V46.0989H82.2851V45.1392Z" fill="#E7E8E9"/>
<path d="M82.2851 47.2985H27.4111V48.2581H82.2851V47.2985Z" fill="#E7E8E9"/>
<path d="M82.2851 51.3387H27.4111V52.2984H82.2851V51.3387Z" fill="#BBDEFB"/>
<path d="M82.2851 53.498H27.4111V54.4577H82.2851V53.498Z" fill="#E7E8E9"/>
<path d="M82.2851 55.6573H27.4111V56.617H82.2851V55.6573Z" fill="#E7E8E9"/>
<path d="M82.2851 57.8167H27.4111V58.7763H82.2851V57.8167Z" fill="#E7E8E9"/>
<path d="M82.2851 61.7369H27.4111V62.6966H82.2851V61.7369Z" fill="#BBDEFB"/>
<path d="M82.2851 63.8962H27.4111V64.8559H82.2851V63.8962Z" fill="#E7E8E9"/>
<path d="M82.2851 66.0555H27.4111V67.0152H82.2851V66.0555Z" fill="#E7E8E9"/>
<path d="M82.2851 68.2148H27.4111V69.1745H82.2851V68.2148Z" fill="#E7E8E9"/>
<path d="M82.2851 72.1351H27.4111V73.0948H82.2851V72.1351Z" fill="#BBDEFB"/>
<path d="M82.2851 74.2944H27.4111V75.2541H82.2851V74.2944Z" fill="#E7E8E9"/>
<path d="M82.2851 76.4537H27.4111V77.4134H82.2851V76.4537Z" fill="#E7E8E9"/>
<path d="M82.2851 78.613H27.4111V79.5727H82.2851V78.613Z" fill="#E7E8E9"/>
<path d="M167.02 87.1591C170.929 96.9287 173.827 108.239 175.805 117.552C175.096 117.864 174.376 118.162 173.65 118.45C173.324 118.584 173.004 118.709 172.673 118.834C170.604 119.63 168.481 120.345 166.305 120.978C164.59 121.482 162.83 121.938 161.052 122.332C144.262 126.085 126.436 124.783 110.671 118.651C110.025 118.397 109.379 118.138 108.745 117.869C109.888 112.941 111.248 107.149 112.843 100.628C113.422 98.2643 114.03 95.8043 114.666 93.2483C117.942 80.1533 122.64 73.0229 126.522 69.1601L126.562 69.1217C127.299 68.3874 128.097 67.6979 128.951 67.0584C128.975 67.0352 129.001 67.0143 129.031 66.996C129.225 66.8521 129.42 66.7177 129.602 66.5882C131.94 64.9903 133.529 64.6976 133.529 64.6976L133.672 64.7408H133.752C134.994 65.1518 136.295 65.4213 137.622 65.5421H137.845H137.879C138.727 65.6102 139.579 65.6214 140.429 65.5757H140.48C142.839 65.4495 145.137 64.8927 147.214 63.9442C149.648 64.6203 151.942 65.6128 154.01 66.8857C159.92 70.5277 171.827 83.8817 171.827 83.8817L167.02 87.1591Z" fill="url(#paint5_linear_1_597)"/>
<path d="M188.792 105.393C188.758 106.727 187.312 109.433 185.197 112.716C182.213 114.523 179.072 116.14 175.799 117.552C175.091 117.864 174.37 118.162 173.645 118.45C173.319 118.584 172.999 118.709 172.667 118.834C170.598 119.63 168.475 120.345 166.299 120.978L171.821 106.204L157.531 93.6082L167.014 87.1591L171.821 83.8914C171.821 83.8914 188.941 100.235 188.792 105.393Z" fill="url(#paint6_linear_1_597)"/>
<defs>
<filter id="filter0_d_1_597" x="0" y="18.4723" width="100.659" height="82.8595" filterUnits="userSpaceOnUse" color-interpolation-filters="sRGB">
<feFlood flood-opacity="0" result="BackgroundImageFix"/>
<feColorMatrix in="SourceAlpha" type="matrix" values="0 0 0 0 0 0 0 0 0 0 0 0 0 0 0 0 0 0 127 0" result="hardAlpha"/>
<feOffset dy="4"/>
<feGaussianBlur stdDeviation="5"/>
<feColorMatrix type="matrix" values="0 0 0 0 0 0 0 0 0 0 0 0 0 0 0 0 0 0 0.15 0"/>
<feBlend mode="normal" in2="BackgroundImageFix" result="effect1_dropShadow_1_597"/>
<feBlend mode="normal" in="SourceGraphic" in2="effect1_dropShadow_1_597" result="shape"/>
</filter>
<linearGradient id="paint0_linear_1_597" x1="142.207" y1="6.75677" x2="140.421" y2="129.406" gradientUnits="userSpaceOnUse">
<stop stop-color="white" stop-opacity="0"/>
<stop offset="1" stop-color="#64B5F6" stop-opacity="0.6"/>
</linearGradient>
<linearGradient id="paint1_linear_1_597" x1="118.936" y1="64.2993" x2="115.905" y2="97.6426" gradientUnits="userSpaceOnUse">
<stop stop-color="#42A5F5"/>
<stop offset="1" stop-color="#1565C0"/>
</linearGradient>
<linearGradient id="paint2_linear_1_597" x1="69.4696" y1="99.2847" x2="116.572" y2="106.721" gradientUnits="userSpaceOnUse">
<stop stop-color="#FFE082"/>
<stop offset="1" stop-color="#FFA726"/>
</linearGradient>
<linearGradient id="paint3_linear_1_597" x1="10659.9" y1="2398.65" x2="10662.2" y2="2182.9" gradientUnits="userSpaceOnUse">
<stop stop-color="#FFE082"/>
<stop offset="1" stop-color="#FFA726"/>
</linearGradient>
<linearGradient id="paint4_linear_1_597" x1="16964.8" y1="3842.17" x2="17862.6" y2="3842.17" gradientUnits="userSpaceOnUse">
<stop stop-color="#FFE082"/>
<stop offset="1" stop-color="#FFA726"/>
</linearGradient>
<linearGradient id="paint5_linear_1_597" x1="48617.7" y1="14237.8" x2="54126.2" y2="20595.9" gradientUnits="userSpaceOnUse">
<stop stop-color="#42A5F5"/>
<stop offset="1" stop-color="#1565C0"/>
</linearGradient>
<linearGradient id="paint6_linear_1_597" x1="26046.5" y1="11562.7" x2="25727.4" y2="9170.16" gradientUnits="userSpaceOnUse">
<stop stop-color="#FFE082"/>
<stop offset="1" stop-color="#FFA726"/>
</linearGradient>
</defs>
</svg>
