<svg width="158" height="130" viewBox="0 0 158 130" fill="none" xmlns="http://www.w3.org/2000/svg">
<path d="M150.189 62.2704C150.198 70.9251 148.027 79.4859 143.813 87.4042C139.6 95.3225 133.437 102.424 125.721 108.252C123.575 109.875 121.319 111.395 118.963 112.804C115.94 114.613 112.757 116.231 109.442 117.645H109.408C108.701 117.952 107.983 118.245 107.259 118.528C106.929 118.663 106.605 118.787 106.269 118.912C104.172 119.709 102.022 120.425 99.8174 121.059C98.08 121.539 96.2963 122.019 94.4953 122.413C84.1061 124.704 73.2464 125.128 62.6436 123.656C61.3869 123.484 60.1476 123.287 58.914 123.061L57.8716 122.864C54.7249 122.254 51.6297 121.475 48.6057 120.53C46.849 119.983 45.1271 119.383 43.4399 118.73C42.7855 118.475 42.1311 118.216 41.4883 117.947C41.0481 117.765 40.6138 117.577 40.1795 117.39C28.396 112.259 18.4689 104.624 11.4148 95.2654C4.36065 85.9072 0.432922 75.1627 0.0337823 64.132C-0.365357 53.1013 2.77845 42.1809 9.14326 32.4889C15.5081 22.7969 24.8652 14.6817 36.2565 8.97417C47.6477 3.26666 60.6639 0.171956 73.9719 0.00696136C87.28 -0.158034 100.402 2.61261 111.994 8.03518C123.586 13.4578 133.231 21.3374 139.943 30.8672C146.654 40.3971 150.191 51.2347 150.189 62.2704Z" fill="url(#paint0_linear_1_575)"/>
<path d="M94.7732 66.7744C99.5567 70.8559 113.49 86.7403 113.49 86.7403L104.931 97.1457L97.2345 76.474L94.7732 66.7744Z" fill="url(#paint1_linear_1_575)"/>
<path d="M109.408 117.678C108.701 117.985 107.983 118.278 107.259 118.562C106.929 118.696 106.605 118.821 106.269 118.946C104.172 119.743 102.022 120.458 99.8174 121.092C98.08 121.572 96.2963 122.052 94.4953 122.446C84.1062 124.738 73.2464 125.162 62.6436 123.69C61.3869 123.517 60.1476 123.32 58.9141 123.094C54.3969 125.678 50.2272 127.863 47.4648 128.857L47.6907 127.258L48.6288 120.569L50.8006 105.006L59.4063 98.106L40.0579 99.3496C40.0579 99.3496 42.0906 75.9649 50.0245 71.1535C57.9585 66.3422 66.2805 62.0302 66.2805 62.0302C67.2733 62.573 68.367 62.9769 69.5178 63.2258C72.2696 63.8565 75.13 64.0984 77.9787 63.9413C81.3724 63.8116 84.766 61.1946 84.9282 61.0602C84.9282 61.0602 90.2561 61.9389 94.7732 66.7935C97.0261 69.2925 98.6437 72.1448 99.5278 75.1774C100.64 78.726 102.615 87.0138 104.862 97.0256C106.333 103.47 107.879 110.615 109.408 117.678Z" fill="url(#paint2_linear_1_575)"/>
<path d="M113.491 86.7595L121.749 94.7833L150.792 70.88L151.892 65.987L157.683 61.8142L155.106 68.1766V76.4645C155.106 76.4645 132.706 106.572 126.532 108.123C119.311 109.942 104.943 97.1361 104.943 97.1361L113.491 86.7595Z" fill="url(#paint3_linear_1_575)"/>
<path d="M83.3416 97.7315L90.0767 111.177L98.7809 108.075L92.399 94.9177L83.3416 97.7315Z" fill="#7E57C2"/>
<path d="M92.7233 106.418C91.6404 107.157 90.0246 106.984 88.0208 107.071C85.3288 107.13 82.7468 107.969 80.7239 109.443C78.031 111.32 70.5024 116.233 62.9738 120.718C61.6071 121.529 60.2404 122.331 58.92 123.118C54.4028 125.702 50.2332 127.887 47.4708 128.881C46.7445 129.179 45.9603 129.37 45.1543 129.442C41.2857 129.524 40.4576 122.802 40.2202 117.438C40.1449 115.656 40.1275 114.029 40.087 112.852C39.9248 108.147 40.087 99.4073 40.087 99.4073L59.4354 98.1588L57.3853 109.27L57.0263 111.234V111.248L62.8175 109.472L62.997 109.419L83.5558 103.085L84.9747 101.054L85.8781 102.975H85.965L94.7676 102.015C94.7676 102.015 94.9182 104.925 92.7233 106.418Z" fill="url(#paint4_linear_1_575)"/>
<path d="M88.2813 36.3408C87.7774 35.1979 87.3431 34.42 87.2157 34.1896V34.1319C87.2157 34.1319 86.7698 35.0443 83.4109 34.8234C80.0519 34.6025 78.94 33.2196 78.94 33.2196C78.94 33.2196 79.994 36.2159 75.9923 37.498C72.1411 38.7369 70.6238 37.935 70.5196 37.8773C70.7223 38.0598 73.7337 40.7296 71.7358 42.8472C69.6683 45.0416 65.0179 44.6094 65.0179 44.6094V44.6383C65.6032 45.7372 66.2585 46.8095 66.9812 47.8506C67.3634 48.398 67.7398 48.9022 68.1394 49.3728V49.4064C69.165 50.7898 70.5499 51.966 72.1933 52.8493C71.471 56.3633 69.3967 59.5891 66.2804 62.0447C67.3288 62.4983 68.4099 62.8976 69.5177 63.2404C71.6779 63.9174 74.5792 64.5897 77.1679 64.4024C80.1674 64.1365 82.939 62.9515 84.9397 61.0796L83.6135 56.8588L82.4206 53.0558C93.2038 50.7749 90.2387 40.8544 88.2813 36.3408ZM81.8183 53.195L82.0094 53.1566L82.3163 53.0846C81.8696 53.2448 81.3978 53.3515 80.9148 53.4015C81.1639 53.3487 81.4187 53.2911 81.6851 53.2238L81.8183 53.195Z" fill="url(#paint5_linear_1_575)"/>
<path d="M94.7731 34.007C90.3255 37.3971 88.4028 36.4415 88.2812 36.3503V36.3407C87.7773 35.1979 87.343 34.42 87.2214 34.1895L87.1924 34.1319C87.1924 34.1319 86.7407 35.0442 83.3818 34.8233C80.0229 34.6024 78.9168 33.2195 78.9168 33.2195C78.9168 33.2195 79.9708 36.2158 75.969 37.4979C72.1121 38.7368 70.5948 37.9349 70.4964 37.8773C70.6991 38.0549 73.7105 40.7247 71.7125 42.8423C69.645 45.0367 64.9947 44.6093 64.9947 44.6093V44.6334C65.5798 45.7339 66.2351 46.8078 66.9579 47.8505C67.344 48.3948 67.7301 48.9022 68.1162 49.3727V49.4064C68.1162 49.4064 66.5294 51.9945 63.6975 51.9417C60.8656 51.8889 60.8019 49.5408 60.8019 49.5408C60.8019 49.5408 58.7981 52.5371 52.6073 49.6512C46.4165 46.7653 50.5456 42.583 50.5456 42.583C50.5456 42.583 46.1559 39.798 46.1559 35.6252C46.1559 31.4525 52.9895 28.2785 52.9895 28.2785C52.9895 28.2785 50.5456 23.4335 54.669 20.7637C58.7923 18.0939 64.9889 19.9042 64.9889 19.9042C64.9889 19.9042 64.8673 13.7051 71.1797 13.8059C77.4921 13.9067 78.9226 17.1095 78.9226 17.1095C78.9226 17.1095 84.598 13.4698 90.2154 16.8983C95.8329 20.3267 93.5222 26.305 93.5222 26.305C93.5222 26.305 99.4119 30.4777 94.7731 34.007Z" fill="url(#paint6_linear_1_575)"/>
<path opacity="0.15" d="M83.6601 56.8442C80.9672 56.1383 76.1779 53.4445 76.1779 53.4445C78.0679 53.6101 79.9777 53.5258 81.8359 53.1948L82.027 53.1564L82.3976 53.0652H82.4497L83.6601 56.8442Z" fill="black"/>
<path opacity="0.15" d="M62.018 83.7439L59.4061 98.1493L57.3561 109.261L52.5841 112.55L62.9677 109.424C62.9677 109.424 60.2748 103.047 62.018 83.7439Z" fill="black"/>
<path opacity="0.15" d="M58.9025 123.094C60.136 123.32 61.3753 123.517 62.632 123.69C62.6957 122.706 62.8115 121.712 62.9737 120.718L58.9025 123.094Z" fill="black"/>
<defs>
<linearGradient id="paint0_linear_1_575" x1="75.4028" y1="6.7612" x2="73.637" y2="129.491" gradientUnits="userSpaceOnUse">
<stop stop-color="white" stop-opacity="0"/>
<stop offset="1" stop-color="#64B5F6" stop-opacity="0.6"/>
</linearGradient>
<linearGradient id="paint1_linear_1_575" x1="89.1036" y1="62.6497" x2="104.515" y2="95.3115" gradientUnits="userSpaceOnUse">
<stop stop-color="#E57373"/>
<stop offset="1" stop-color="#AD1457"/>
</linearGradient>
<linearGradient id="paint2_linear_1_575" x1="31705.2" y1="37439.3" x2="30182.8" y2="46500.9" gradientUnits="userSpaceOnUse">
<stop stop-color="#E57373"/>
<stop offset="1" stop-color="#AD1457"/>
</linearGradient>
<linearGradient id="paint3_linear_1_575" x1="165.542" y1="73.7466" x2="115.183" y2="108.932" gradientUnits="userSpaceOnUse">
<stop stop-color="#FFF8E1"/>
<stop offset="1" stop-color="#FFCC80"/>
</linearGradient>
<linearGradient id="paint4_linear_1_575" x1="24380.2" y1="20969.8" x2="21728.9" y2="18813.7" gradientUnits="userSpaceOnUse">
<stop stop-color="#FFF8E1"/>
<stop offset="1" stop-color="#FFCC80"/>
</linearGradient>
<linearGradient id="paint5_linear_1_575" x1="93.9508" y1="41.2306" x2="65.2542" y2="55.4837" gradientUnits="userSpaceOnUse">
<stop stop-color="#FFF8E1"/>
<stop offset="1" stop-color="#FFCC80"/>
</linearGradient>
<linearGradient id="paint6_linear_1_575" x1="86.9318" y1="13.6234" x2="59.2582" y2="58.7203" gradientUnits="userSpaceOnUse">
<stop stop-color="#FFB74D"/>
<stop offset="1" stop-color="#F4511E"/>
</linearGradient>
</defs>
</svg>
