<svg width="192" height="123" viewBox="0 0 192 123" fill="none" xmlns="http://www.w3.org/2000/svg">
<path d="M191.596 61.1824C191.589 72.4227 187.798 83.4444 180.639 93.0397C173.48 102.635 163.229 110.434 151.009 115.581C150.459 115.817 149.905 116.043 149.348 116.26L149.232 116.307L148.834 116.463C148.506 116.595 148.183 116.718 147.848 116.84C145.76 117.624 143.618 118.326 141.422 118.949C140.176 119.304 138.917 119.633 137.644 119.935L136.121 120.279C119.177 123.969 101.187 122.689 85.2773 116.661C84.6255 116.411 83.9737 116.156 83.3334 115.892L82.1797 115.421C70.7607 110.527 61.0743 103.313 54.0526 94.4716C53.3142 93.5502 52.6105 92.6067 51.9413 91.6413C51.3452 90.8016 50.7684 89.9509 50.2108 89.0893C44.7913 80.4553 41.973 70.8874 41.9907 61.1824C41.9907 60.0377 42.0291 58.8993 42.1061 57.7672C43.1875 41.8628 51.8139 26.9308 66.1504 16.1472C80.4869 5.36352 99.4024 -0.421007 118.874 0.0238864C138.345 0.46878 156.836 7.10799 170.414 18.5295C183.992 29.9509 191.585 45.2535 191.579 61.1824H191.596Z" fill="url(#paint0_linear_1_633)"/>
<path d="M102.104 59.0076C102.104 59.0076 85.3754 52.5215 83.9218 43.5966C82.4681 34.6717 83.4891 26.143 91.8246 23.7561C91.8246 23.7561 97.097 10.0102 115.787 15.5341C134.477 21.0579 131.529 37.6435 141.745 39.6294C151.961 41.6154 171.037 33.2518 174.677 43.4551C178.317 53.6583 166.348 53.0357 158.393 61.6964C150.438 70.3571 162.725 74.9045 160.475 80.867C158.226 86.8295 149.729 90.9288 149.729 90.9288L102.104 59.0076Z" fill="url(#paint1_linear_1_633)"/>
<path d="M79.1974 78.5839L83.9218 89.0891H84.4352L91.8246 61.6964C87.1579 65.0409 79.1974 78.5839 79.1974 78.5839Z" fill="url(#paint2_linear_1_633)"/>
<path d="M70.9023 93.0751L67.9085 94.3063C64.1936 96.1271 58.6443 95.6082 58.6443 95.6082C61.6439 98.3678 78.534 101.491 83.2815 101.41L84.1583 91.6364H73.6366L70.9023 93.0751Z" fill="url(#paint3_linear_1_633)"/>
<path d="M149.348 116.246L149.232 116.293L148.834 116.449C148.506 116.581 148.183 116.703 147.848 116.826C145.76 117.609 143.618 118.312 141.422 118.935C140.176 119.29 138.916 119.619 137.644 119.921L136.121 120.265C119.177 123.955 101.187 122.675 85.2774 116.647C84.6255 116.397 83.9737 116.142 83.3334 115.878L82.1797 115.406C82.3412 111.359 82.5892 106.514 82.9527 101.406C83.1834 98.2121 83.4661 94.9148 83.8006 91.6411C83.8872 90.7872 83.9795 89.9382 84.0717 89.0891C85.4331 77.0225 87.6136 65.8334 91.1093 62.2766L91.1612 62.2294C91.6051 61.7299 92.2311 61.3584 92.9494 61.1681C97.9969 60.1869 101.556 59.8567 102.116 59.0076C102.675 58.1585 102.116 56.4886 102.116 56.4886L103.119 56.3754C104.579 56.1962 107.411 55.8188 110.093 55.2527C110.11 55.2571 110.128 55.2571 110.145 55.2527C112.516 54.748 114.76 54.097 115.856 53.314L118.106 58.2057C118.106 58.2057 135.025 56.4556 141.63 61.7153C141.67 61.7398 141.707 61.7683 141.739 61.8002C141.809 61.8516 141.874 61.9068 141.935 61.9653C142.328 62.3051 142.678 62.6765 142.979 63.0738C145.131 65.9041 146.654 77.2631 147.71 89.5844C147.952 92.4147 148.171 95.3393 148.361 98.2027C148.8 104.816 149.129 111.222 149.348 116.246Z" fill="url(#paint4_linear_1_633)"/>
<path opacity="0.15" d="M149.233 116.307L148.835 116.463C148.506 116.595 148.183 116.718 147.848 116.84C145.76 117.623 143.618 118.326 141.422 118.949C140.176 119.304 138.917 119.633 137.644 119.935C129.85 113.147 126.759 104.335 126.759 104.335L148.35 98.2027L149.233 116.307Z" fill="black"/>
<path d="M141.624 61.6964C149.44 67.9703 151.142 81.1406 149.7 90.9429C148.258 100.745 145.581 109.925 140.02 109.642C134.459 109.359 115.216 98.4433 107.78 92.4902L112.124 85.6738L127.837 91.0279V76.7584L141.624 61.6964Z" fill="url(#paint5_linear_1_633)"/>
<path d="M141.624 61.6964C149.44 67.9703 151.142 81.1406 149.7 90.9429C148.258 100.745 145.581 109.925 140.02 109.642C134.459 109.359 115.216 98.4433 107.78 92.4902L112.124 85.6738L127.837 91.0279V76.7584L141.624 61.6964Z" fill="url(#paint6_linear_1_633)"/>
<g filter="url(#filter0_d_1_633)">
<path d="M101.198 89.0891H29.0981V91.641H101.198V89.0891Z" fill="url(#paint7_linear_1_633)"/>
<path d="M69.8294 57.767H15L29.0982 89.0891H83.9218L69.8294 57.767Z" fill="url(#paint8_linear_1_633)"/>
</g>
<path d="M45.5614 91.6411C45.5614 91.6411 55.0217 95.5139 61.0325 95.6082C67.0432 95.7026 73.6424 91.6411 73.6424 91.6411H45.5614Z" fill="url(#paint9_linear_1_633)"/>
<path d="M112.124 85.6738C112.124 85.6738 103.806 82.2397 100.223 81.8624C96.6413 81.485 85.5197 89.0891 85.5197 89.0891H101.21L107.798 92.4902L112.124 85.6738Z" fill="url(#paint10_linear_1_633)"/>
<path d="M115.152 45.5778C115.194 48.1608 115.425 50.7395 115.845 53.2998C112.124 55.0121 107.769 55.932 103.108 56.3801L102.837 53.2998L102.675 51.4129V51.3516C101.777 51.3351 100.891 51.1748 100.068 50.8799C94.4377 48.894 93.2263 39.186 93.2263 39.186C95.4818 39.1105 98.4179 35.7849 98.4179 35.7849C100.062 37.8416 107.688 41.8135 112.112 40.7474C116.537 39.6813 116.191 37.1293 116.191 37.1293C116.991 37.4053 117.683 37.8556 118.192 38.4312C118.7 39.0069 119.006 39.6857 119.075 40.3936C119.311 42.8843 115.152 45.5778 115.152 45.5778Z" fill="url(#paint11_linear_1_633)"/>
<path opacity="0.15" d="M111.374 48.3185C110.33 49.7619 105.606 52.0592 102.842 53.3093L102.681 51.4224C102.854 51.4224 103.021 51.3752 103.183 51.3469C105.439 51.0204 107.604 50.3636 109.574 49.4081C109.598 49.4006 109.619 49.3894 109.638 49.3751C110.23 49.0889 110.785 48.7538 111.293 48.3751L111.374 48.3185Z" fill="black"/>
<path opacity="0.15" d="M121.353 88.8249L133.594 92.9195L127.826 89.5184V76.782C127.826 76.782 126.02 87.8485 121.353 88.8249Z" fill="black"/>
<defs>
<filter id="filter0_d_1_633" x="0" y="42.767" width="126.198" height="73.8741" filterUnits="userSpaceOnUse" color-interpolation-filters="sRGB">
<feFlood flood-opacity="0" result="BackgroundImageFix"/>
<feColorMatrix in="SourceAlpha" type="matrix" values="0 0 0 0 0 0 0 0 0 0 0 0 0 0 0 0 0 0 127 0" result="hardAlpha"/>
<feOffset dx="5" dy="5"/>
<feGaussianBlur stdDeviation="10"/>
<feColorMatrix type="matrix" values="0 0 0 0 0 0 0 0 0 0 0 0 0 0 0 0 0 0 0.2 0"/>
<feBlend mode="normal" in2="BackgroundImageFix" result="effect1_dropShadow_1_633"/>
<feBlend mode="normal" in="SourceGraphic" in2="effect1_dropShadow_1_633" result="shape"/>
</filter>
<linearGradient id="paint0_linear_1_633" x1="117.1" y1="6.6434" x2="115.389" y2="127.236" gradientUnits="userSpaceOnUse">
<stop stop-color="white" stop-opacity="0"/>
<stop offset="1" stop-color="#64B5F6" stop-opacity="0.6"/>
</linearGradient>
<linearGradient id="paint1_linear_1_633" x1="83.3738" y1="52.5734" x2="175.358" y2="52.5734" gradientUnits="userSpaceOnUse">
<stop stop-color="#EF9A9A"/>
<stop offset="1" stop-color="#D81B60"/>
</linearGradient>
<linearGradient id="paint2_linear_1_633" x1="84.8274" y1="76.4801" x2="82.9672" y2="102.344" gradientUnits="userSpaceOnUse">
<stop stop-color="#7E57C2"/>
<stop offset="1" stop-color="#4527A0"/>
</linearGradient>
<linearGradient id="paint3_linear_1_633" x1="7710.54" y1="2359.16" x2="7692.41" y2="2897.31" gradientUnits="userSpaceOnUse">
<stop stop-color="#7E57C2"/>
<stop offset="1" stop-color="#4527A0"/>
</linearGradient>
<linearGradient id="paint4_linear_1_633" x1="23024.8" y1="13873.3" x2="26451.7" y2="21558" gradientUnits="userSpaceOnUse">
<stop stop-color="#7E57C2"/>
<stop offset="1" stop-color="#4527A0"/>
</linearGradient>
<linearGradient id="paint5_linear_1_633" x1="15801.6" y1="9122.67" x2="18881.4" y2="15395" gradientUnits="userSpaceOnUse">
<stop stop-color="#7E57C2"/>
<stop offset="1" stop-color="#4527A0"/>
</linearGradient>
<linearGradient id="paint6_linear_1_633" x1="132.458" y1="67.0174" x2="128.031" y2="111.17" gradientUnits="userSpaceOnUse">
<stop offset="0.14" stop-color="#7E57C2" stop-opacity="0"/>
<stop offset="0.26" stop-color="#724DBB" stop-opacity="0.21"/>
<stop offset="0.48" stop-color="#5F3DAF" stop-opacity="0.55"/>
<stop offset="0.66" stop-color="#5131A7" stop-opacity="0.79"/>
<stop offset="0.81" stop-color="#482AA2" stop-opacity="0.94"/>
<stop offset="0.91" stop-color="#4527A0"/>
</linearGradient>
<linearGradient id="paint7_linear_1_633" x1="29.0981" y1="90.3627" x2="101.198" y2="90.3627" gradientUnits="userSpaceOnUse">
<stop stop-color="#D2D4D5"/>
<stop offset="1" stop-color="#AAACAE"/>
</linearGradient>
<linearGradient id="paint8_linear_1_633" x1="607.038" y1="3919.78" x2="3827.61" y2="8397.48" gradientUnits="userSpaceOnUse">
<stop stop-color="#D2D4D5"/>
<stop offset="1" stop-color="#AAACAE"/>
</linearGradient>
<linearGradient id="paint9_linear_1_633" x1="47.3496" y1="87.3815" x2="68.7543" y2="98.6022" gradientUnits="userSpaceOnUse">
<stop stop-color="#FFF8E1"/>
<stop offset="1" stop-color="#FFCC80"/>
</linearGradient>
<linearGradient id="paint10_linear_1_633" x1="8912.8" y1="2746.03" x2="9379.73" y2="3366.71" gradientUnits="userSpaceOnUse">
<stop stop-color="#FFF8E1"/>
<stop offset="1" stop-color="#FFCC80"/>
</linearGradient>
<linearGradient id="paint11_linear_1_633" x1="9104.57" y1="3012.62" x2="9481.25" y2="3877.31" gradientUnits="userSpaceOnUse">
<stop stop-color="#FFF8E1"/>
<stop offset="1" stop-color="#FFCC80"/>
</linearGradient>
</defs>
</svg>
