<svg width="61" height="42" viewBox="0 0 61 42" fill="none" xmlns="http://www.w3.org/2000/svg">
<path fill-rule="evenodd" clip-rule="evenodd" d="M57.9149 19.1797C55.4012 5.14095 49.7812 1 46.7916 1C42.1263 1 40.9293 4.46836 31.0001 4.58521C21.071 4.46836 19.874 1 15.2087 1C12.2191 1 6.5962 5.14095 4.08257 19.1797C2.64905 27.1937 1.09299 39.1577 4.80075 40.5941C9.41478 42.381 10.9794 37.9123 16.0466 34.1361C21.1907 30.3087 23.6587 29.4081 31.0001 29.4081C38.3416 29.4081 40.8096 30.3087 45.9537 34.1361C51.0209 37.9094 52.5855 42.381 57.1995 40.5941C60.9073 39.1577 59.3512 27.1965 57.9149 19.1797ZM19.6004 21.0008C18.0887 21.0008 16.6389 20.4003 15.57 19.3313C14.5011 18.2624 13.9006 16.8126 13.9006 15.3009C13.9006 13.7892 14.5011 12.3395 15.57 11.2705C16.6389 10.2016 18.0887 9.60108 19.6004 9.60108C21.1121 9.60108 22.5619 10.2016 23.6308 11.2705C24.6998 12.3395 25.3003 13.7892 25.3003 15.3009C25.3003 16.8126 24.6998 18.2624 23.6308 19.3313C22.5619 20.4003 21.1121 21.0008 19.6004 21.0008ZM39.5499 21.0008C38.7941 21.0008 38.0692 20.7005 37.5347 20.1661C37.0003 19.6316 36.7 18.9067 36.7 18.1509C36.7 17.395 37.0003 16.6701 37.5347 16.1357C38.0692 15.6012 38.7941 15.3009 39.5499 15.3009C40.3058 15.3009 41.0307 15.6012 41.5651 16.1357C42.0996 16.6701 42.3999 17.395 42.3999 18.1509C42.3999 18.9067 42.0996 19.6316 41.5651 20.1661C41.0307 20.7005 40.3058 21.0008 39.5499 21.0008ZM45.2498 15.3009C44.4939 15.3009 43.769 15.0007 43.2346 14.4662C42.7001 13.9318 42.3999 13.2069 42.3999 12.451C42.3999 11.6952 42.7001 10.9703 43.2346 10.4358C43.769 9.90134 44.4939 9.60108 45.2498 9.60108C46.0056 9.60108 46.7305 9.90134 47.265 10.4358C47.7995 10.9703 48.0997 11.6952 48.0997 12.451C48.0997 13.2069 47.7995 13.9318 47.265 14.4662C46.7305 15.0007 46.0056 15.3009 45.2498 15.3009Z" fill="url(#paint0_linear_1311_3160)"/>
<defs>
<linearGradient id="paint0_linear_1311_3160" x1="2.50122" y1="20.6667" x2="59.4988" y2="20.6667" gradientUnits="userSpaceOnUse">
<stop stop-color="#3DAFE2"/>
<stop offset="1" stop-color="#6F76C0"/>
</linearGradient>
</defs>
</svg>
