<svg width="84" height="48" viewBox="0 0 84 48" fill="none" xmlns="http://www.w3.org/2000/svg">
<path fill-rule="evenodd" clip-rule="evenodd" d="M52.1673 0L35.8451 25.7287H18.0004L22.1503 19.3659H33.2164L37.228 13.0027H12.4676L8.45639 19.3659H14.4042L6.24268 32.0919H39.5796L52.1673 12.0344L56.7326 19.3659H52.8594L48.709 25.7287H60.7434L64.7554 32.0919H72.5011L52.1673 0Z" fill="#0A090A"/>
<path fill-rule="evenodd" clip-rule="evenodd" d="M46.7729 0.138184H20.4908L16.4792 6.50141H42.7613L46.7729 0.138184Z" fill="#0A090A"/>
<path fill-rule="evenodd" clip-rule="evenodd" d="M75.13 37.625H74.5763V35.4121H74.023V34.9971H75.6825V35.4121H75.13V37.625ZM78.0346 35.9655L77.3429 37.625H77.2046L76.5129 35.9655L76.2358 37.625H75.6825L76.2358 34.8584H76.6513L77.3429 36.6567L77.8962 34.8584H78.3117L78.7258 37.625H78.1733L78.0346 35.9655ZM7.6258 37.21V45.5103H15.2336V42.6054H11.2224V40.3916H17.5852V44.957C17.5852 47.4465 16.8936 48.0003 14.9573 48.0003H7.76413C5.82749 48.0003 5.27417 47.4469 5.27417 44.957V38.0404C5.27417 35.5509 5.82749 34.8588 7.76413 34.8588H14.9573C16.8936 34.8588 17.5852 35.5505 17.5852 37.9021V38.7321H15.2336V37.21H7.6258ZM22.5651 42.7437L24.9167 37.4867L27.13 42.7437H22.5651ZM17.8623 47.9998H20.3522L21.5972 45.0949H28.0988L29.3438 47.9998H32.1104L26.1626 34.8584H23.8109L17.8623 47.9998ZM33.4928 34.8584H35.4295L40.2711 42.8812L45.1122 34.8584H47.0493V47.9998H44.8356V39.8387C44.8356 39.7004 44.8356 39.1471 44.9739 38.455C44.6972 39.1467 44.4206 39.5621 44.2831 39.8387L40.4094 46.4778H39.8561L35.9832 39.8387C35.7066 39.4237 35.5682 39.0087 35.4299 38.455V47.9998H33.4933L33.4928 34.8584ZM49.2626 34.8584H59.9132V37.0717H51.7521V40.115H56.4549V42.3287H51.7521V45.5103H60.0515V47.9998H49.2626V34.8584ZM69.873 40.2533H64.7552V37.0717H70.703V38.8704H73.0542V37.9017C73.0542 35.6888 72.2247 34.9967 69.596 34.9967H65.7235C63.0953 34.9967 62.2653 35.6884 62.2653 38.1783V39.2854C62.2653 41.7749 63.0953 42.467 65.7235 42.467H70.703V45.787H64.3398V43.8499H61.7115V44.8186C61.7115 47.3082 62.5415 48.0003 65.1698 48.0003H69.8726C72.5009 48.0003 73.3309 47.3086 73.3309 44.8186V43.4349C73.3313 40.945 72.5009 40.2533 69.873 40.2533Z" fill="#0A090A"/>
</svg>
