<svg width="57" height="48" viewBox="0 0 57 48" fill="none" xmlns="http://www.w3.org/2000/svg">
<g clip-path="url(#clip0_1270_85212)">
<path d="M44.7049 47.9525H13.2963C7.90724 47.9525 3.52295 43.8173 3.52295 38.7341V9.21938C3.52295 4.13624 7.90709 0.000976562 13.2963 0.000976562H44.705C50.0939 0.000976562 54.4784 4.13624 54.4784 9.21938V38.7341C54.4784 43.8173 50.0939 47.9525 44.7049 47.9525ZM13.2963 1.13989C8.53519 1.13989 4.66171 4.7642 4.66171 9.21938V38.7341C4.66171 43.1892 8.53519 46.8136 13.2963 46.8136H44.705C49.4661 46.8136 53.3396 43.1892 53.3396 38.7341V9.21938C53.3396 4.76435 49.4661 1.13989 44.705 1.13989H13.2963Z" fill="#0A090A"/>
<path d="M21.6801 8.49463L31.1385 8.51701C33.1152 8.50214 34.5913 8.81769 35.5662 9.46367C36.7569 10.2555 37.352 11.6179 37.352 13.5509C37.352 16.7335 35.8759 18.5365 32.924 18.9596V19.0042C34.2257 19.3285 34.8837 20.4063 34.8984 22.2376C34.8984 23.1756 34.8634 24.3771 34.7933 25.8422C34.7933 26.8248 35.0011 27.6749 35.4175 28.3925H30.2346C29.9927 28.1301 29.8718 27.5957 29.8718 26.7889C29.9709 25.4402 30.0204 24.3337 30.0204 23.4699C30.0204 21.7251 29.1821 20.8528 27.5053 20.8528H24.1516L22.6891 27.9099H17.6406L21.6801 8.49463ZM29.6757 12.541H25.9594L24.9902 17.2258H29.0116C31.2595 17.2258 32.3905 16.3388 32.4052 14.5642C32.4054 13.2155 31.4953 12.541 29.6757 12.541Z" fill="#0A090A"/>
<path d="M36.1039 28.3701L39.846 21.8848L40.8549 28.4149H47.239L41.4792 32.5503L42.4014 39.0356L37.4144 35.1231L30.7108 39.1917L33.8465 32.2868L30.1919 28.3518L36.1039 28.3701ZM53.1611 45.4751C53.3683 45.4751 53.5705 45.5295 53.7679 45.6383C53.9654 45.7468 54.1192 45.9026 54.229 46.1051C54.3393 46.3075 54.3943 46.5185 54.3943 46.7383C54.3943 46.9559 54.3402 47.165 54.2315 47.3656C54.1272 47.562 53.9688 47.7243 53.7751 47.8333C53.5795 47.9445 53.3748 47.9997 53.1608 47.9997C52.9474 47.9997 52.7426 47.9442 52.5466 47.8333C52.3527 47.7242 52.1941 47.562 52.0895 47.3656C51.9806 47.165 51.9259 46.9556 51.9259 46.7383C51.9259 46.5185 51.9813 46.3075 52.092 46.1051C52.2028 45.9026 52.3568 45.747 52.5541 45.6383C52.7518 45.5294 52.9541 45.4751 53.1611 45.4751ZM53.1611 45.6841C52.9878 45.6841 52.8189 45.7296 52.6549 45.8206C52.4916 45.9107 52.3578 46.0459 52.2695 46.2102C52.1769 46.3793 52.1305 46.5552 52.1305 46.738C52.1305 46.9199 52.1761 47.0942 52.2671 47.2609C52.355 47.4243 52.4874 47.5595 52.6489 47.6508C52.8125 47.7438 52.983 47.7905 53.1609 47.7905C53.3386 47.7905 53.5094 47.7438 53.6731 47.6508C53.8345 47.5597 53.9666 47.4244 54.054 47.2609C54.1445 47.0942 54.1897 46.92 54.1897 46.738C54.1897 46.555 54.1435 46.3793 54.0516 46.2102C53.9637 46.0457 53.8299 45.9103 53.6663 45.8206C53.502 45.7296 53.3335 45.6841 53.1611 45.6841ZM52.6198 47.4359V46.0774H53.0761C53.2321 46.0774 53.3449 46.0899 53.4146 46.115C53.4846 46.1401 53.54 46.1839 53.5813 46.2464C53.6229 46.3089 53.6437 46.3751 53.6437 46.4454C53.6437 46.5447 53.6091 46.6312 53.5397 46.7046C53.4706 46.7782 53.3787 46.8194 53.2641 46.8284C53.311 46.8487 53.3487 46.8725 53.3768 46.9005C53.4305 46.9539 53.4957 47.0438 53.5732 47.1696L53.7351 47.4358H53.4735L53.3559 47.2216C53.2632 47.0534 53.1884 46.9478 53.1318 46.9054C53.0924 46.874 53.0352 46.8584 52.9598 46.8584H52.834V47.4358H52.6198V47.4359ZM52.834 46.6711H53.0941C53.2186 46.6711 53.3033 46.6522 53.3485 46.6141C53.3936 46.5765 53.4163 46.526 53.4163 46.4636C53.4167 46.4251 53.4053 46.3874 53.3835 46.3557C53.3611 46.3235 53.3295 46.2987 53.2928 46.2847C53.254 46.2692 53.1826 46.2611 53.0779 46.2611H52.834V46.6711Z" fill="#0A090A"/>
<path d="M40.4667 32.0862L44.2921 29.3614H40.0601L39.327 24.6357L36.6413 29.317H32.3657L34.9644 32.1086L32.8159 36.7936L37.4796 33.9797L41.1564 36.8604L40.4667 32.0862Z" fill="#0A090A"/>
</g>
<defs>
<clipPath id="clip0_1270_85212">
<rect width="50.9554" height="48" fill="white" transform="translate(3.52246)"/>
</clipPath>
</defs>
</svg>
