<svg width="62" height="75" viewBox="0 0 62 75" fill="none" xmlns="http://www.w3.org/2000/svg">
<path d="M60.8952 26.8991C59.9743 25.8409 58.6125 25.2352 57.1596 25.2352H45.3256V22.7299C45.3256 19.0608 42.3403 16.0756 38.6713 16.0756H37.5249V15.8891C37.5249 13.2667 35.446 11.1228 32.8497 11.0144V8.51919C33.9368 8.26476 34.8808 7.89901 35.6745 7.41761C37.149 6.52275 37.788 5.44141 38.0641 4.69257C38.68 3.01995 38.0323 1.10303 36.5896 0.329607C36.179 0.111315 35.7438 0 35.2943 0C34.3156 0 33.3961 0.543563 32.841 1.43264C32.5605 1.61623 31.4879 2.16991 28.7541 2.16991H21.9437C18.4843 2.16991 16.3346 4.53499 16.3346 8.34427C16.3346 10.2106 17.6791 11.73 19.3329 11.73C20.806 11.73 22.0348 10.5243 22.2849 8.94132H25.5564V11.0144C22.96 11.1228 20.8812 13.2667 20.8812 15.8891V16.0756H19.7333C16.0643 16.0756 13.079 19.0608 13.079 22.7299V22.8282H8.79122C6.88875 22.8282 5.34047 24.3765 5.34047 26.279V32.8003C4.30105 33.6893 3.64039 35.0078 3.64039 36.4809V38.6306C1.66853 40.0386 0.325522 42.288 0.15349 44.8685C0.0797623 46.0005 0.027719 47.2003 0.000251727 48.432C-0.0127591 49.0551 0.480206 49.5712 1.10328 49.5857C1.72491 49.6001 2.24245 49.1057 2.25546 48.4826C2.28148 47.2842 2.33208 46.119 2.40436 45.0174C2.55471 42.7391 3.95988 40.8149 5.9115 39.9042C5.92595 39.8984 5.93896 39.8912 5.95198 39.8854C6.73262 39.5312 7.59712 39.3404 8.45439 39.3404H14.37C15.2301 39.3404 16.0903 39.5312 16.8724 39.8854C16.8868 39.8912 16.8999 39.8984 16.9129 39.9042C18.8862 40.8193 20.2754 42.8446 20.42 45.0174C20.5342 46.7305 20.5906 48.4913 20.5906 50.2478C20.5906 51.079 20.5675 51.9088 20.5501 52.7386C20.5487 52.7675 20.5487 52.7964 20.5472 52.8268C20.5371 53.1203 19.7203 53.9298 19.5497 54.2334C19.2693 54.7322 19.0423 55.2569 18.8746 55.8034C18.493 57.0437 18.412 58.3521 18.3889 59.6416C18.3556 61.573 18.5479 63.513 18.9744 65.3981C18.9758 65.4068 18.9772 65.414 18.9801 65.4227C18.2674 67.383 16.4344 68.6797 14.3324 68.6797H8.49198C6.16882 68.6797 4.13335 67.023 3.64906 64.7404C2.88142 61.119 2.42171 57.1478 2.28148 52.9352C2.26124 52.3121 1.73647 51.8235 1.11629 51.8452C0.493217 51.8654 0.00458866 52.3873 0.0262734 53.0104C0.170838 57.3546 0.647901 61.4587 1.44156 65.2088C2.14414 68.528 5.11061 70.9379 8.49198 70.9379H14.3353C16.5327 70.9379 18.5277 69.9649 19.862 68.3617C20.5747 70.2598 21.5346 72.0206 22.7215 73.5762C22.9354 73.8552 23.2665 74.02 23.6178 74.02H44.9107C45.262 74.02 45.5945 73.8552 45.807 73.5762C46.1511 73.1266 46.4749 72.6582 46.7799 72.1768H56.4816C57.1047 72.1768 57.6107 71.6722 57.6107 71.0477V61.732L60.2895 42.3806C60.3748 41.7633 59.944 41.1937 59.3267 41.1084C58.7079 41.0231 58.1398 41.4539 58.0545 42.0712L55.9121 57.5512H50.0138C49.9372 56.8096 49.7753 56.0781 49.5136 55.3798C48.7098 53.2374 47.0647 51.5474 45.0018 50.6656L44.9613 50.3692L42.151 30.0665C42.1408 29.9943 42.135 29.9205 42.1322 29.8483C42.1322 29.8439 42.1322 29.841 42.1322 29.8367C42.1119 29.1066 42.5037 28.4489 43.0733 28.0166C43.5315 27.6697 44.1329 27.4933 44.704 27.4933H57.1611C57.9605 27.4933 58.7022 27.8171 59.1951 28.3824C59.6144 28.8638 59.7994 29.4623 59.7155 30.0651L58.679 37.555C58.5937 38.1723 59.0245 38.7419 59.6418 38.8272C60.2591 38.9125 60.8287 38.4817 60.914 37.8644L61.9505 30.373C62.124 29.1139 61.7496 27.8793 60.8952 26.8991ZM21.9423 6.68322C21.4218 6.68322 20.7756 6.74249 20.4012 7.1545C20.1077 7.47688 20.073 7.92937 20.073 8.34427C20.073 9.00927 19.6827 9.47332 19.3314 9.47332C18.9801 9.47332 18.5898 9.00927 18.5898 8.34427C18.5898 4.93544 20.6903 4.42801 21.9423 4.42801H28.7527C29.8051 4.42801 30.898 4.36151 31.9432 4.13599C32.8439 3.94083 33.8515 3.6517 34.5136 2.97514C34.755 2.72793 34.8721 2.25954 35.2928 2.25954C35.368 2.25954 35.4417 2.27978 35.5183 2.32026C35.9173 2.53422 36.1833 3.26138 35.9419 3.91481C35.7482 4.44102 34.9083 5.92859 31.5616 6.47794C31.5529 6.47939 31.5457 6.47939 31.537 6.48083C30.6176 6.63118 29.6837 6.68467 28.7527 6.68467H26.684L21.9423 6.68322ZM30.5901 8.86615V11.0071H27.813V8.93987C27.8159 8.98903 30.5901 8.88928 30.5901 8.86615ZM25.7602 13.2638H26.684H31.7192H32.6429C34.0886 13.2638 35.2653 14.4406 35.2653 15.8862V16.0727H23.1378V15.8862C23.1378 14.4406 24.3146 13.2638 25.7602 13.2638ZM7.59857 26.2833C7.59857 26.2818 7.59857 26.279 7.59857 26.2775C7.59857 25.6197 8.13346 25.0849 8.79122 25.0849H14.0346C14.0606 25.0849 14.0852 25.0877 14.1098 25.0892C14.1155 25.0892 14.1199 25.0906 14.1242 25.0906C15.447 25.1875 15.2272 26.7271 15.2272 27.6523C15.2272 28.7756 15.2272 29.8988 15.2272 31.0221C15.2272 31.2549 15.2272 31.4862 15.2272 31.7189C14.9367 31.6654 14.6403 31.638 14.344 31.638C14.344 31.638 8.4833 31.638 8.48041 31.638C8.20718 31.638 7.8877 31.7175 7.60001 31.7088C7.51472 29.9119 7.59857 28.0846 7.59857 26.2833ZM16.9288 37.4842C16.9288 37.156 14.688 37.0808 14.37 37.0808H8.45728C7.59134 37.0808 6.72251 37.2182 5.89849 37.4842C5.89849 37.4842 5.89849 36.4794 5.89849 36.478C5.89849 35.0829 7.08681 33.8932 8.4833 33.8932H14.3468C15.1954 33.8932 16.0151 34.3326 16.4893 35.0352C16.9837 35.7682 16.9288 36.6413 16.9288 37.4842ZM48.5205 68.8518C48.5378 68.7954 48.5508 68.752 48.5609 68.7246C48.9527 67.6172 49.3026 66.4896 49.5584 65.3418C49.9632 63.5289 50.1613 61.6626 50.1396 59.8049H55.354V61.651V69.9158C55.354 69.9158 48.0159 69.9158 48.013 69.9158C48.2068 69.9172 48.4207 69.1814 48.5205 68.8518ZM47.309 55.9595H41.9804C41.3573 55.9595 40.8513 56.464 40.8513 57.0886C40.8513 57.7131 41.3559 58.2176 41.9804 58.2176H47.8063C47.8107 58.2653 47.8135 58.3145 47.8179 58.3622C48.1692 63.0374 47.0849 67.9121 44.3411 71.7619H24.1888C22.8053 69.8218 21.8035 67.5449 21.2238 65.0873C20.6961 62.848 20.5313 60.5104 20.7221 58.2176H37.4656C38.0887 58.2176 38.5947 57.7131 38.5947 57.0886C38.5947 56.464 38.0901 55.9595 37.4656 55.9595H21.2166C21.5086 55.267 21.9307 54.6324 22.4685 54.0831C23.5946 52.9323 25.2036 52.2471 26.8329 52.2471H41.6956C42.2117 52.2471 42.7205 52.3136 43.2106 52.4423C45.0177 52.9121 46.5688 54.2045 47.309 55.9595ZM43.0675 25.5026C43.0675 25.4954 41.7216 26.2009 41.5929 26.3021C39.3782 28.0672 39.9492 30.6462 40.2861 33.0822L42.6338 50.0425C42.6266 50.041 42.6193 50.041 42.6107 50.041C42.482 50.0266 42.3519 50.0165 42.2218 50.0078C42.1929 50.0063 42.1654 50.0034 42.1365 50.002C41.9905 49.9948 41.843 49.989 41.6941 49.989H26.8329C26.1173 49.989 25.4031 50.0815 24.7107 50.2622C24.3738 50.3504 24.0413 50.4588 23.719 50.586C23.6004 50.6338 22.8472 50.8954 22.8458 50.9937C22.8487 50.7422 22.8487 50.4935 22.8487 50.2449C22.8487 48.4378 22.7894 46.6279 22.6723 44.8656C22.587 43.5804 22.1938 42.3126 21.5447 41.2009C21.2498 40.6964 20.9014 40.2222 20.5082 39.79C20.3043 39.5659 20.0889 39.3534 19.862 39.1539C19.7767 39.0787 19.1854 38.6971 19.1854 38.6175V36.4765C19.1854 35.0844 18.5566 33.7038 17.4853 32.793V26.2761C17.4853 26.1951 17.481 26.1156 17.4752 26.0361C17.4738 26.0202 17.4723 26.0028 17.4709 25.9869C17.361 24.6699 16.5095 23.5611 15.3357 23.0812V22.727C15.3357 20.3027 17.309 18.3293 19.7333 18.3293H22.0088H36.3929H38.6684C41.0927 18.3293 43.066 20.3027 43.066 22.727C43.0675 22.7284 43.0675 25.5026 43.0675 25.5026Z" fill="#BA7894"/>
</svg>
