<svg width="65" height="66" viewBox="0 0 65 66" fill="none" xmlns="http://www.w3.org/2000/svg">
<path d="M10.168 52.059C9.97213 52.5568 9.49669 52.8596 8.99282 52.8596C8.83802 52.8596 8.68007 52.8311 8.52685 52.7692C3.69187 50.8461 0.758657 48.3743 0.0415446 45.6235C-0.135364 44.9465 0.268999 44.2521 0.945043 44.0761C1.62109 43.9001 2.31135 44.3044 2.48668 44.983C2.98423 46.8919 5.46096 48.8214 9.46036 50.4132C10.108 50.6701 10.4255 51.4073 10.168 52.059ZM14.4628 38.7806C14.7013 38.9836 14.9919 39.0835 15.281 39.0835C15.638 39.0835 15.9934 38.9312 16.2429 38.6379C16.6962 38.1052 16.6315 37.3046 16.1008 36.8495C15.4737 36.3136 14.8608 35.746 14.278 35.161C9.86435 30.7308 7.12173 25.3463 6.6241 20.4878C6.40276 18.3267 8.1716 16.556 10.3323 16.7808C11.5826 16.9109 12.8676 17.1914 14.1621 17.6125C14.2845 17.6524 14.4005 17.7072 14.5222 17.7491C14.6432 17.7909 14.7696 17.8197 14.8898 17.8635C18.3676 19.1323 21.8811 21.3951 24.9367 24.4622C25.7186 25.247 26.4641 26.081 27.1512 26.9372C27.5888 27.4826 28.3849 27.5682 28.9282 27.129C29.4716 26.6898 29.5569 25.8907 29.1194 25.3453C28.3754 24.4178 27.5698 23.5173 26.7232 22.6675C24.278 20.2132 21.5459 18.23 18.7373 16.799C17.2005 16.0161 16.0351 14.3397 16.3143 12.6377C16.6341 10.6878 18.6584 9.85537 20.3632 10.8544C20.6687 11.0334 20.9727 11.2282 21.2743 11.4383C22.7189 12.445 23.1545 14.3048 22.8853 16.0448C22.8562 16.2333 22.8287 16.4225 22.8028 16.6126C22.708 17.307 23.1913 17.9459 23.8832 18.0411C24.575 18.1362 25.2116 17.6511 25.3063 16.9566C25.9398 12.3238 27.5949 8.24505 29.9366 5.33974C31.3057 3.64117 33.8198 3.64115 35.189 5.33962C37.5307 8.24439 39.1857 12.3219 39.8192 16.9534C39.914 17.6479 40.5505 18.133 41.2424 18.0379C41.9342 17.9428 42.4175 17.3022 42.3228 16.6094C42.2971 16.4207 42.2697 16.2329 42.2408 16.0458C41.9717 14.3052 42.407 12.4446 43.8523 11.4379C44.153 11.2284 44.4561 11.0342 44.7607 10.8557C46.4661 9.85608 48.491 10.6891 48.811 12.6398C49.0901 14.3406 47.9261 16.0162 46.3905 16.7988C43.5811 18.2304 40.8481 20.2137 38.4023 22.6675C37.5557 23.5173 36.7501 24.4178 36.0062 25.3453C35.5686 25.8907 35.6539 26.6898 36.1973 27.129C36.7407 27.5682 37.5367 27.4826 37.9743 26.9372C38.6614 26.081 39.4069 25.2486 40.1888 24.4622C43.244 21.3956 46.7554 19.1314 50.2327 17.864C50.3539 17.8198 50.4819 17.7909 50.6039 17.7489C50.7256 17.707 50.841 17.6524 50.9635 17.6126C52.2579 17.1922 53.5428 16.9117 54.7931 16.7814C56.9538 16.5563 58.7227 18.3268 58.5015 20.4879C58.004 25.3474 55.2614 30.7319 50.8476 35.161C50.2647 35.746 49.6518 36.3136 49.0248 36.8495C48.494 37.303 48.4293 38.1036 48.881 38.6379C49.3328 39.1707 50.1304 39.2357 50.6628 38.7822C51.3404 38.2035 52.0038 37.5884 52.634 36.9557C59.0533 30.514 62.2329 22.0872 60.7387 15.4901C60.6312 15.0144 60.2616 14.6434 59.7862 14.534C59.1611 14.3912 58.5195 14.2909 57.8647 14.2317C54.6252 13.9392 51.5969 11.5468 50.1946 8.61196C50.0145 8.23489 49.8165 7.87396 49.6013 7.53099C49.3423 7.11877 48.87 6.89204 48.3866 6.94754C48.0134 6.9909 47.6382 7.05532 47.2623 7.14018C43.8262 7.91594 39.5751 6.91532 37.4342 4.11795C36.2034 2.50958 34.7898 1.1777 33.2341 0.195013C32.8234 -0.0650043 32.299 -0.0650043 31.8883 0.195013C30.3325 1.1777 28.919 2.50958 27.6881 4.11795C25.5473 6.91532 21.2965 7.91508 17.8603 7.14C17.4844 7.05523 17.1092 6.99087 16.7357 6.94754C16.2524 6.89204 15.7817 7.11877 15.5226 7.53099C15.3079 7.87355 15.1105 8.23401 14.9308 8.6106C13.5297 11.5463 10.5013 13.9391 7.26156 14.2318C6.60701 14.291 5.96569 14.3913 5.34091 14.534C4.86705 14.6418 4.49744 15.0144 4.38845 15.4901C2.89262 22.0872 6.07382 30.5124 12.4931 36.9557C13.1217 37.5868 13.7852 38.2003 14.4628 38.7806ZM13.8641 48.6993C14.0947 48.0382 13.7472 47.3152 13.0886 47.0837C9.27555 45.7456 6.99943 44.0539 6.99943 42.5604C6.99943 41.5948 7.99139 40.504 9.79207 39.4877C10.4002 39.1453 10.6166 38.3716 10.2738 37.7612C9.93264 37.1508 9.16183 36.9336 8.5537 37.2776C5.84479 38.806 4.47216 40.5833 4.47216 42.562C4.47216 45.3017 7.16371 47.6926 12.2546 49.481C12.392 49.5301 12.5326 49.5523 12.6716 49.5523C13.1944 49.5507 13.6825 49.2225 13.8641 48.6993ZM51.7874 47.1725C51.1271 47.3977 50.7733 48.1175 50.9976 48.7818C51.1761 49.3097 51.6673 49.6427 52.1933 49.6427C52.3276 49.6427 52.465 49.6205 52.5993 49.5745C57.8702 47.7782 60.6581 45.3524 60.6581 42.5604C60.6581 40.6531 59.3787 38.9297 56.8561 37.4377C56.2543 37.0826 55.4804 37.2824 55.1265 37.8864C54.7727 38.4905 54.9717 39.2674 55.5735 39.6225C57.2226 40.5976 58.1308 41.6408 58.1308 42.5588C58.1292 44.0713 55.6999 45.8391 51.7874 47.1725ZM45.0964 56.4428C45.0964 57.727 44.0555 58.7734 42.7745 58.7734C42.0764 58.7734 41.5109 59.341 41.5109 60.0418C41.5109 60.7426 42.0764 61.3102 42.7745 61.3102C45.4487 61.3102 47.6237 59.127 47.6237 56.4428C47.6237 55.742 47.0582 55.1744 46.3601 55.1744C45.6619 55.1744 45.0964 55.742 45.0964 56.4428ZM64.0541 44.0761C63.3797 43.9001 62.6878 44.3044 62.5125 44.983C62.0149 46.8935 59.5398 48.8214 55.5404 50.4132C54.8912 50.6717 54.5737 51.4089 54.8312 52.0605C55.027 52.5584 55.5041 52.8612 56.0063 52.8612C56.1611 52.8612 56.3191 52.8327 56.4723 52.7708C61.3073 50.8461 64.2421 48.3743 64.9592 45.6235C65.1345 44.9465 64.7286 44.2537 64.0541 44.0761ZM41.5993 44.6263C41.5993 45.3175 41.0402 45.8788 40.3515 45.8788C39.6533 45.8788 39.0879 46.4464 39.0879 47.1472C39.0879 47.8479 39.6533 48.4155 40.3515 48.4155C42.4333 48.4155 44.1266 46.7159 44.1266 44.6263C44.1266 43.9255 43.5611 43.3579 42.863 43.3579C42.1648 43.3579 41.5993 43.9271 41.5993 44.6263ZM37.9885 36.5261H38.3186C39.0168 36.5261 39.5823 35.9585 39.5823 35.2577C39.5823 34.5569 39.0168 33.9893 38.3186 33.9893H37.9885C37.2903 33.9893 36.7249 34.5569 36.7249 35.2577C36.7249 35.9585 37.2919 36.5261 37.9885 36.5261ZM51.0418 51.068C52.1996 52.6805 52.8125 54.5814 52.8125 56.5649C52.8125 61.7668 48.5967 66 43.4126 66H21.7176C16.5351 66 12.3178 61.7684 12.3178 56.5664C12.3178 54.2016 13.212 51.9745 14.7261 50.2772C15.9176 48.9415 16.5367 47.0313 16.5367 45.2414C16.5367 43.1915 17.3475 41.3279 18.664 39.9568C19.9026 38.6668 20.5803 36.5022 20.5803 34.7139C20.5803 31.4716 23.2087 28.8334 26.4389 28.8334H38.6914C41.9216 28.8334 44.5499 31.4716 44.5499 34.7139C44.5499 37.9562 41.9216 40.5944 38.6914 40.5944H26.4389C25.6829 40.5944 24.9605 40.4494 24.2955 40.1877C24.2423 40.1667 24.1852 40.1584 24.128 40.1584C21.3354 40.1584 19.064 42.4383 19.064 45.2414C19.064 46.2894 19.3815 47.2661 19.9264 48.0762C19.9691 48.1286 20.0086 48.1841 20.0433 48.2427C20.9658 49.5032 22.4537 50.3244 24.128 50.3244H41.0023C43.7949 50.3244 46.0663 48.0445 46.0663 45.2414C46.0663 43.7321 45.3966 42.3067 44.2277 41.3317C43.6906 40.8845 43.618 40.0839 44.0634 39.5448C44.5089 39.0058 45.3065 38.9328 45.8436 39.3799C47.5905 40.8386 48.5936 42.9742 48.5936 45.2398C48.5936 49.4413 45.1881 52.8596 41.0023 52.8596H24.128C23.295 52.8596 22.4928 52.7242 21.7423 52.4741C19.61 51.7637 17.003 51.0815 15.8409 53.0052C15.2042 54.0591 14.845 55.2845 14.845 56.5649C14.845 60.3684 17.9283 63.4632 21.7176 63.4632H43.4126C47.202 63.4632 50.2852 60.3684 50.2852 56.5664C50.2852 55.1189 49.8382 53.7316 48.9916 52.5536C48.5841 51.986 48.712 51.1933 49.2775 50.7826C49.843 50.372 50.6327 50.5004 51.0418 51.068ZM23.1076 34.7139C23.1076 36.5578 24.6019 38.0577 26.4389 38.0577H38.6914C40.5284 38.0577 42.0227 36.5578 42.0227 34.7139C42.0227 32.87 40.5284 31.3701 38.6914 31.3701H26.4389C24.6019 31.3701 23.1076 32.87 23.1076 34.7139Z" fill="#BA7894"/>
</svg>
