<svg width="192" height="48" viewBox="0 0 192 48" fill="none" xmlns="http://www.w3.org/2000/svg">
<g clip-path="url(#clip0_1270_84336)">
<path d="M66.9903 13.1744H74.421V41.5168H66.9903V13.1744ZM175.706 29.4333V41.4086L168.23 41.3818V12.2998L181.694 23.8878V13.175H189.106V42.5629L175.706 29.4333ZM29.622 27.2692C29.622 19.2252 36.1508 12.6968 44.1942 12.6968C47.8192 12.6968 51.1377 14.0312 53.6899 16.2224L48.8745 21.6869C47.6121 20.6227 45.9796 19.9825 44.1942 19.9825C40.1724 19.9825 36.9081 23.2468 36.9081 27.2686C36.9081 31.2904 40.1724 34.5547 44.1942 34.5547C46.0066 34.5547 47.6661 33.8875 48.9465 32.7872L53.753 38.2609C51.2006 40.488 47.8557 41.8319 44.1942 41.8319C36.1502 41.8324 29.622 35.3126 29.622 27.2692Z" fill="#0A090A"/>
<path d="M88.5695 48.0001L74.5109 10.6492H62.7609V41.6248H55.0687V10.6492H38.0437L41.9933 3.20966H80.0024L88.5691 25.5908L97.1451 3.20947H133.946L138.004 10.649H102.637L88.5695 48.0001Z" fill="#0A090A"/>
<path d="M112.322 41.4087V35.1503H117.426C118.256 35.1503 119.834 35.0873 120.23 33.7708C121.051 31.0296 112.647 26.5838 112.647 19.7668C112.647 14.6087 116.38 13.0669 118.914 13.0669H126.651V19.2167H121.871C121.871 19.2167 120.501 19.2167 120.122 19.7668C118.048 22.7337 127.805 27.0709 127.805 35.0423C127.805 39.2084 124.234 41.4087 120.672 41.4087H112.322ZM102.745 13.0663H110.185V41.4087H102.745V13.0663ZM129.013 13.0663H136.453V41.4087H129.013V13.0663ZM23.9768 41.5167L22.0016 36.2417H12.7769L10.8023 41.5167H2.89404L17.3944 0L31.8947 41.5167H23.9768ZM15.0311 28.6664H19.4229L17.2227 21.4162L15.0311 28.6664ZM137.805 27.2599C137.805 19.2072 144.343 12.6697 152.405 12.6697C160.458 12.6697 166.995 19.2072 166.995 27.2599C166.995 35.3218 160.457 41.8593 152.405 41.8593C144.343 41.8593 137.805 35.3214 137.805 27.2599ZM145.154 27.2599C145.154 31.2635 148.401 34.5101 152.405 34.5101C156.399 34.5101 159.646 31.2637 159.646 27.2599C159.646 23.2653 156.399 20.0189 152.405 20.0189C148.401 20.0189 145.154 23.2647 145.154 27.2599Z" fill="#0A090A"/>
</g>
<defs>
<clipPath id="clip0_1270_84336">
<rect width="186.335" height="48" fill="white" transform="translate(2.83228)"/>
</clipPath>
</defs>
</svg>
