<svg width="57" height="48" viewBox="0 0 57 48" fill="none" xmlns="http://www.w3.org/2000/svg">
<g clip-path="url(#clip0_1271_92624)">
<g clip-path="url(#clip1_1271_92624)">
<path fill-rule="evenodd" clip-rule="evenodd" d="M58.8479 36.5728C57.6488 38.0857 54.7109 39.1649 54.7109 39.1649L32.8559 47.0151V41.2258L48.9397 35.495C50.7649 34.8411 51.0452 33.9166 49.5616 33.4314C48.0808 32.9448 45.3995 33.0842 43.5729 33.7409L32.8559 37.5154V31.5072L33.4736 31.298C33.4736 31.298 36.5704 30.2021 40.925 29.7196C45.2795 29.24 50.6115 29.7852 54.7974 31.3719C59.5144 32.8625 60.0457 35.06 58.8479 36.5728ZM34.9363 26.7148V11.9096C34.9363 10.1709 34.6156 8.57017 32.9842 8.11701C31.7349 7.71683 30.9596 8.87693 30.9596 10.6143V47.69L20.9607 44.5164V0.310059C25.2121 1.09926 31.4058 2.9649 34.7355 4.08735C43.2034 6.99456 46.0743 10.6129 46.0743 18.7656C46.0743 26.712 41.169 29.7238 34.9363 26.7148ZM2.61391 40.6206C-2.22866 39.257 -3.03459 36.4153 -0.827342 34.7783C1.21259 33.2669 4.68173 32.1291 4.68173 32.1291L19.0184 27.0313V32.843L8.70163 36.5352C6.87922 37.1892 6.59895 38.115 8.07975 38.6002C9.56194 39.0855 12.2447 38.9474 14.0699 38.2921L19.0184 36.4962V41.6957C18.7047 41.7515 18.3547 41.8072 18.0312 41.8616C13.0813 42.6703 7.80925 42.3329 2.61391 40.6206ZM55.6632 42.9227C56.2893 42.9227 56.8763 43.1653 57.3183 43.6129C57.7603 44.0535 58.0044 44.6419 58.0044 45.2666C58.0044 45.8941 57.7603 46.4797 57.3183 46.9203C56.8763 47.3651 56.2893 47.6077 55.6632 47.6077C55.0372 47.6077 54.4516 47.3651 54.0082 46.9203C53.5661 46.4797 53.3235 45.8941 53.3235 45.2666C53.3235 43.9754 54.3721 42.9227 55.6632 42.9227ZM53.7167 45.2666C53.7167 45.7867 53.9189 46.2761 54.287 46.6414C54.6537 47.0123 55.1445 47.2131 55.6632 47.2131C56.7383 47.2131 57.6098 46.3403 57.6098 45.2666C57.6098 44.7451 57.409 44.2557 57.0395 43.889C56.6728 43.5181 56.1819 43.3187 55.6632 43.3187C55.1445 43.3187 54.6537 43.5181 54.287 43.889C53.9189 44.2557 53.7167 44.7451 53.7167 45.2666ZM56.3702 44.0047C56.6267 44.1177 56.7564 44.3352 56.7564 44.6447C56.7564 44.8037 56.7229 44.9375 56.6546 45.0421C56.6058 45.1174 56.5361 45.1788 56.458 45.2318C56.5194 45.268 56.5737 45.3112 56.6142 45.3614C56.67 45.4339 56.702 45.5497 56.7062 45.7072L56.7188 46.0405C56.723 46.1297 56.7285 46.198 56.7425 46.2399C56.7564 46.3012 56.7829 46.3403 56.8164 46.3528L56.8512 46.3695V46.4072V46.4644V46.5215H56.7941H56.38H56.3465L56.3298 46.4923C56.3158 46.4644 56.3061 46.4323 56.2963 46.3905C56.2893 46.3528 56.2823 46.2873 56.2782 46.1869L56.2572 45.7728C56.2516 45.6292 56.2028 45.5399 56.1108 45.4925C56.0537 45.466 55.9588 45.4535 55.8306 45.4535H55.1208V46.4644V46.5215H55.0623H54.7248H54.6677V46.4644V43.9727V43.9155H54.7248H55.878C56.076 43.9155 56.2419 43.9448 56.3702 44.0047ZM55.1208 45.0547H55.8431C55.9881 45.0547 56.1039 45.0282 56.1861 44.9738C56.2614 44.9194 56.2977 44.8204 56.2977 44.6768C56.2977 44.5206 56.2461 44.4188 56.1373 44.3645C56.0774 44.3352 55.9937 44.3185 55.8877 44.3185H55.1208V45.0547Z" fill="#0A090A"/>
</g>
</g>
<defs>
<clipPath id="clip0_1271_92624">
<rect width="57" height="48" fill="white"/>
</clipPath>
<clipPath id="clip1_1271_92624">
<rect width="62.0078" height="48" fill="white" transform="translate(-2.30396)"/>
</clipPath>
</defs>
</svg>
