<svg width="57" height="48" viewBox="0 0 57 48" fill="none" xmlns="http://www.w3.org/2000/svg">
<path d="M1.72095 38.1803V44.0374C1.72095 46.4156 3.34212 47.9315 5.70322 47.9315C8.18679 47.9315 9.70695 46.3329 9.70695 43.877V38.1803H7.60486V43.77C7.60486 45.1091 6.93047 45.9396 5.72563 45.9396C4.40518 45.9396 3.82309 44.9846 3.82309 43.877V38.1803H1.72095ZM10.729 38.2612V47.8359H14.0771C15.9315 47.8359 17.5072 46.8901 17.5072 45.0143C17.5072 43.0563 15.7938 42.6223 15.7938 42.6223C15.7938 42.6223 17.0625 42.2699 17.0625 40.5947C17.0625 38.9207 15.4589 38.2612 14.0771 38.2612H10.729ZM12.8468 40.0798H13.8632C14.5685 40.0798 15.0199 40.4514 15.0199 41.0978C15.0199 41.6761 14.637 42.1125 13.9166 42.1125H12.8469V40.0798H12.8468ZM12.8468 43.6102H13.9701C15.0264 43.6102 15.3927 44.1528 15.3927 44.8003C15.3927 45.5538 14.9189 45.9955 14.0771 45.9955H12.8469V43.6103L12.8468 43.6102ZM18.3028 38.2605H20.4157V47.8352H18.3028V38.2605ZM41.357 47.8352H39.2441V38.2605H45.8768V40.2397H41.357V42.4328H45.4757V44.0374H41.357V47.8352ZM46.6525 38.2605V40.2397H49.3804V47.8352H51.5201V40.2397H54.1945V38.2605H46.6525ZM22.8277 44.6516L21.1492 45.8788C21.1492 45.8788 21.7292 48 24.6369 48C26.5732 48 27.998 46.87 27.998 44.8835C27.998 41.682 23.5215 42.3612 23.5215 40.7148C23.5215 40.2815 23.9068 39.8988 24.6179 39.8988C25.7589 39.8988 26.1925 41.018 26.1925 41.018L27.8715 39.8397C27.8715 39.8397 27.2157 38.0917 24.7022 38.0917C22.6366 38.0917 21.5393 39.4169 21.5393 40.7844C21.5393 44.0469 25.8855 43.3388 25.8855 45.051C25.8855 45.6288 25.4302 46.0533 24.7211 46.0485C23.3161 46.0485 22.8277 44.6516 22.8277 44.6516ZM33.4538 38.0873C30.9657 38.0873 29.8567 39.4379 29.8567 39.4379L30.1776 39.7588C30.1776 39.7588 28.5679 40.9022 28.5679 43.3577C28.5679 46.1831 30.7469 47.9979 33.4655 47.9979C36.6243 47.9979 38.4167 45.6671 38.4167 43.0468C38.4167 40.2525 36.3704 38.0873 33.4538 38.0873ZM33.4989 40.0748C35.186 40.0748 36.2804 41.3642 36.2804 43.0384C36.2804 44.6953 35.199 46.0205 33.4989 46.0205C31.8193 46.0205 30.7158 44.8476 30.7158 43.2908C30.7158 41.874 31.6753 41.2565 31.6753 41.2565L31.3276 40.9088C31.3276 40.9088 32.0674 40.0748 33.4989 40.0748ZM26.9878 0C16.1364 0 11.4525 9.65892 11.4525 9.65892L12.8312 10.6459C12.8312 10.6459 11.0962 13.9454 11.1442 18.1775C11.1442 26.8167 18.0213 34.955 28.1449 34.955C37.3419 34.955 44.9391 27.4692 44.9391 18.1987C44.9391 6.10787 35.563 0 26.9879 0H26.9878ZM27.082 2.94734C35.5602 2.94734 42.139 9.7794 42.139 17.722C42.139 26.1416 35.8065 31.997 28.4273 31.997C22.9964 31.997 18.0972 27.8612 18.0972 22.1908C18.0972 18.9157 19.838 16.6323 21.7886 15.4154L22.0741 15.7252C21.5403 16.1429 20.0181 18.588 20.0181 20.9912C20.0181 25.4526 23.5167 28.5425 27.9247 28.5425C33.5397 28.5425 37.2845 23.7534 37.2845 18.1927C37.2845 11.7229 31.5736 6.23024 24.701 6.23024C20.8997 6.23024 17.6734 7.865 15.8195 9.30818L15.531 9.04702C17.9564 5.30739 22.1566 2.94734 27.082 2.94734ZM24.5522 9.1366C28.9379 9.1366 33.2198 12.038 34.2886 16.1564L33.8998 16.3037C31.9808 13.7695 28.8364 11.6694 25.1231 11.6694C18.2904 11.6694 14.7021 17.8782 15.2289 23.0639L14.8265 23.2112C14.8265 23.2112 14.0718 21.546 14.0718 19.5714C14.0718 13.8534 18.7676 9.1366 24.5522 9.1366ZM27.4509 16.3128C29.5273 16.3128 31.1879 17.9958 31.1879 19.9936C31.1879 21.6468 30.1265 22.6266 30.1265 22.6266L31.3837 23.5058C31.3837 23.5058 30.137 25.4631 27.5922 25.4631C25.1579 25.4631 23.0049 23.4982 23.0049 20.856C23.0049 18.1335 25.3467 16.3128 27.4509 16.3128Z" fill="#0A090A"/>
</svg>
