<svg width="163" height="48" viewBox="0 0 163 48" fill="none" xmlns="http://www.w3.org/2000/svg">
<path d="M160.145 38.8542L149.187 24.0908L159.199 10.6885H155.439L147.296 21.6226L139.153 10.6885H135.416L145.404 24.1139L134.47 38.8772H138.23L147.296 26.6513L156.385 38.8772H160.145" fill="#0A090A"/>
<path d="M85.4971 38.8542L74.563 24.0908L84.5514 10.6885H80.8144L72.6715 21.6226L64.5286 10.6885H60.7685L70.7799 24.1139L59.8228 38.8772H63.5828L72.6715 26.6513L81.7371 38.8772H85.4971" fill="#0A090A"/>
<path d="M98.6222 35.9015H90.2486V25.6594H98.6222C101.806 25.6594 105.589 26.5129 105.589 30.5498C105.589 35.2095 101.206 35.9015 98.6222 35.9015ZM90.2486 13.6181H98.6222C100.883 13.6181 104.689 14.1717 104.689 18.0932C104.689 21.0459 102.474 22.8221 98.6222 22.8221H90.2486V13.6181ZM106.304 25.1519C105.704 24.6444 105.081 24.2523 104.435 23.9755C106.488 22.8682 107.849 20.7691 107.849 18.347C107.849 16.5477 107.18 10.6885 98.5991 10.6885H87.0422V22.8452H83.1899C82.6824 23.4911 81.5521 25.0366 81.1138 25.6594H87.0422V38.8542H98.5991C104.874 38.8542 108.772 35.6939 108.772 30.619C108.795 28.4045 107.942 26.5129 106.304 25.1519Z" fill="#0A090A"/>
<path d="M123.812 36.5016C117.699 36.5016 113.432 31.6805 113.432 24.7602C113.432 17.8399 117.699 13.0187 123.812 13.0187C129.902 13.0187 134.147 17.8399 134.147 24.7602C134.147 31.6574 129.902 36.5016 123.812 36.5016ZM123.812 10.043C115.785 10.043 110.202 16.0867 110.202 24.7602C110.202 33.4336 115.785 39.4774 123.812 39.4774C131.794 39.4774 137.376 33.4336 137.376 24.7602C137.376 16.0867 131.794 10.043 123.812 10.043Z" fill="#0A090A"/>
<path d="M22.8269 47.9003C19.1385 47.5485 15.4022 46.2214 12.1881 44.1213C9.49648 42.3624 8.88886 41.6429 8.88886 40.1984C8.88886 37.3042 12.0709 32.23 17.5075 26.4523C20.5989 23.169 24.9003 19.3207 25.364 19.422C26.2701 19.6245 33.5029 26.6921 36.2106 30.0127C40.4959 35.2788 42.468 39.5855 41.466 41.5043C40.7038 42.9647 35.9867 45.8163 32.5222 46.9089C29.6653 47.815 25.913 48.1988 22.8269 47.9003ZM5.25911 37.1923C3.02583 33.7598 1.89586 30.3752 1.34687 25.4876C1.16565 23.8726 1.22961 22.9505 1.75728 19.6352C2.41288 15.5044 4.75809 10.7287 7.583 7.78653C8.78759 6.53397 8.89419 6.50199 10.3599 6.99768C12.1402 7.59998 14.0377 8.91116 16.9852 11.5815L18.7068 13.1379L17.7687 14.2945C13.4034 19.6565 8.80358 27.2571 7.07132 31.9582C6.12791 34.5113 5.74947 37.0804 6.15456 38.1464C6.42639 38.8659 6.17588 38.5994 5.25911 37.1923ZM44.4881 37.7733C44.7066 36.6966 44.4295 34.7138 43.7739 32.7151C42.3614 28.3871 37.623 20.3281 33.2737 14.8541L31.9039 13.1325L33.3857 11.7681C35.3205 9.98783 36.6636 8.92182 38.1134 8.02105C39.2594 7.30683 40.8903 6.67788 41.5939 6.67788C42.0256 6.67788 43.55 8.2609 44.7813 9.99316C46.6894 12.6688 48.0912 15.9202 48.8001 19.2994C49.2585 21.4847 49.2958 26.1591 48.8747 28.3338C48.5283 30.1193 47.7927 32.4379 47.0785 34.0156C46.5402 35.1935 45.2077 37.4801 44.6214 38.2263C44.3229 38.5994 44.3229 38.5994 44.4881 37.7733ZM23.2213 5.85706C21.2119 4.83369 18.1151 3.74104 16.4042 3.44256C15.8019 3.34128 14.7839 3.28265 14.1283 3.31464C12.7158 3.38393 12.7798 3.31463 15.045 2.2433C16.9265 1.35318 18.4989 0.830842 20.6309 0.38312C23.0294 -0.123233 27.5333 -0.128563 29.8945 0.37246C32.4423 0.910792 35.4431 2.0301 37.1327 3.06945L37.6337 3.3786L36.4824 3.31996C34.1905 3.2027 30.8539 4.13013 27.2668 5.87838C26.1848 6.40605 25.2467 6.82712 25.1774 6.81113C25.1135 6.80047 24.2287 6.36874 23.2213 5.85706Z" fill="#0A090A"/>
</svg>
